%FSLAX45Y45*%
G04 Gerber Fmt 4.5, Leading zero omitted, Abs format (unit mm)*
G04 Created by KiCad (PCBNEW (6.0.2-0)) date 2022-07-19 14:25:53*
%MOMM*%
%LPD*%
G01*
G04 APERTURE LIST*
%TA.AperFunction,Profile*%
%ADD10C,0.100000*%
%TD*%
%ADD11C,0.200000*%
%ADD12C,0.120000*%
G04 APERTURE END LIST*
D10*
X15440000Y-11040000D02*
X15130000Y-9900000D01*
X28025000Y-6300000D02*
X28025000Y-4500000D01*
X8075000Y-9900000D02*
X8620000Y-9900000D01*
X28500000Y-4500000D02*
X28500000Y-2700000D01*
X28025000Y-4500000D02*
X28500000Y-4500000D01*
X-1425000Y-4500000D02*
X-1425000Y-8100000D01*
X8620000Y-9900000D02*
X8310000Y-11040000D01*
X15200000Y-9900000D02*
X28975000Y-9900000D01*
X-950000Y-900000D02*
X-950000Y-4500000D01*
X10050000Y-11510000D02*
X10480000Y-9900000D01*
X27550000Y-900000D02*
X-950000Y-900000D01*
X-1900000Y-8100000D02*
X-1900000Y-9900000D01*
X10480000Y-9900000D02*
X13270000Y-9900000D01*
X-1425000Y-8100000D02*
X-1900000Y-8100000D01*
X28975000Y-9900000D02*
X28975000Y-6300000D01*
X27550000Y-2700000D02*
X27550000Y-900000D01*
X15130000Y-9900000D02*
X15200000Y-9900000D01*
X-950000Y-4500000D02*
X-1425000Y-4500000D01*
X28975000Y-6300000D02*
X28025000Y-6300000D01*
X13270000Y-9900000D02*
X13700000Y-11510000D01*
X13700000Y-11510000D02*
X15440000Y-11040000D01*
X-1900000Y-9900000D02*
X8075000Y-9900000D01*
X28500000Y-2700000D02*
X27550000Y-2700000D01*
X8310000Y-11040000D02*
X10050000Y-11510000D01*
D11*
D12*
X-60000Y-8850000D02*
X60000Y-8970000D01*
X60000Y-8850000D02*
X-60000Y-8970000D01*
X2790000Y-1470000D02*
X2910000Y-1590000D01*
X2910000Y-1470000D02*
X2790000Y-1590000D01*
X6115000Y-5340000D02*
X6235000Y-5460000D01*
X6235000Y-5340000D02*
X6115000Y-5460000D01*
X10390000Y-1470000D02*
X10510000Y-1590000D01*
X10510000Y-1470000D02*
X10390000Y-1590000D01*
X14000000Y-8310000D02*
X14120000Y-8430000D01*
X14120000Y-8310000D02*
X14000000Y-8430000D01*
X21790000Y-1470000D02*
X21910000Y-1590000D01*
X21910000Y-1470000D02*
X21790000Y-1590000D01*
X22977500Y-9390000D02*
X23097500Y-9510000D01*
X23097500Y-9390000D02*
X22977500Y-9510000D01*
X23452500Y-5070000D02*
X23572500Y-5190000D01*
X23572500Y-5070000D02*
X23452500Y-5190000D01*
D11*
X-1647381Y-11825476D02*
X-1647381Y-11625476D01*
X-1599762Y-11625476D01*
X-1571190Y-11635000D01*
X-1552143Y-11654048D01*
X-1542619Y-11673095D01*
X-1533095Y-11711190D01*
X-1533095Y-11739762D01*
X-1542619Y-11777857D01*
X-1552143Y-11796905D01*
X-1571190Y-11815952D01*
X-1599762Y-11825476D01*
X-1647381Y-11825476D01*
X-1447381Y-11825476D02*
X-1447381Y-11692143D01*
X-1447381Y-11730238D02*
X-1437857Y-11711190D01*
X-1428333Y-11701667D01*
X-1409286Y-11692143D01*
X-1390238Y-11692143D01*
X-1323571Y-11825476D02*
X-1323571Y-11692143D01*
X-1323571Y-11625476D02*
X-1333095Y-11635000D01*
X-1323571Y-11644524D01*
X-1314048Y-11635000D01*
X-1323571Y-11625476D01*
X-1323571Y-11644524D01*
X-1199762Y-11825476D02*
X-1218810Y-11815952D01*
X-1228333Y-11796905D01*
X-1228333Y-11625476D01*
X-1095000Y-11825476D02*
X-1114048Y-11815952D01*
X-1123571Y-11796905D01*
X-1123571Y-11625476D01*
X-866428Y-11825476D02*
X-866428Y-11625476D01*
X-799762Y-11768333D01*
X-733095Y-11625476D01*
X-733095Y-11825476D01*
X-552143Y-11825476D02*
X-552143Y-11720714D01*
X-561667Y-11701667D01*
X-580714Y-11692143D01*
X-618810Y-11692143D01*
X-637857Y-11701667D01*
X-552143Y-11815952D02*
X-571190Y-11825476D01*
X-618810Y-11825476D01*
X-637857Y-11815952D01*
X-647381Y-11796905D01*
X-647381Y-11777857D01*
X-637857Y-11758809D01*
X-618810Y-11749286D01*
X-571190Y-11749286D01*
X-552143Y-11739762D01*
X-456905Y-11692143D02*
X-456905Y-11892143D01*
X-456905Y-11701667D02*
X-437857Y-11692143D01*
X-399762Y-11692143D01*
X-380714Y-11701667D01*
X-371190Y-11711190D01*
X-361667Y-11730238D01*
X-361667Y-11787381D01*
X-371190Y-11806428D01*
X-380714Y-11815952D01*
X-399762Y-11825476D01*
X-437857Y-11825476D01*
X-456905Y-11815952D01*
X-275952Y-11806428D02*
X-266429Y-11815952D01*
X-275952Y-11825476D01*
X-285476Y-11815952D01*
X-275952Y-11806428D01*
X-275952Y-11825476D01*
X-275952Y-11701667D02*
X-266429Y-11711190D01*
X-275952Y-11720714D01*
X-285476Y-11711190D01*
X-275952Y-11701667D01*
X-275952Y-11720714D01*
D12*
X-2025000Y-12095000D02*
X-1905000Y-12215000D01*
X-1905000Y-12095000D02*
X-2025000Y-12215000D01*
D11*
X-1542619Y-12245476D02*
X-1656905Y-12245476D01*
X-1599762Y-12245476D02*
X-1599762Y-12045476D01*
X-1618809Y-12074048D01*
X-1637857Y-12093095D01*
X-1656905Y-12102619D01*
X-1456905Y-12226428D02*
X-1447381Y-12235952D01*
X-1456905Y-12245476D01*
X-1466428Y-12235952D01*
X-1456905Y-12226428D01*
X-1456905Y-12245476D01*
X-1371190Y-12064524D02*
X-1361667Y-12055000D01*
X-1342619Y-12045476D01*
X-1295000Y-12045476D01*
X-1275952Y-12055000D01*
X-1266429Y-12064524D01*
X-1256905Y-12083571D01*
X-1256905Y-12102619D01*
X-1266429Y-12131190D01*
X-1380714Y-12245476D01*
X-1256905Y-12245476D01*
X-1133095Y-12045476D02*
X-1114048Y-12045476D01*
X-1095000Y-12055000D01*
X-1085476Y-12064524D01*
X-1075952Y-12083571D01*
X-1066429Y-12121667D01*
X-1066429Y-12169286D01*
X-1075952Y-12207381D01*
X-1085476Y-12226428D01*
X-1095000Y-12235952D01*
X-1114048Y-12245476D01*
X-1133095Y-12245476D01*
X-1152143Y-12235952D01*
X-1161667Y-12226428D01*
X-1171190Y-12207381D01*
X-1180714Y-12169286D01*
X-1180714Y-12121667D01*
X-1171190Y-12083571D01*
X-1161667Y-12064524D01*
X-1152143Y-12055000D01*
X-1133095Y-12045476D01*
X-942619Y-12045476D02*
X-923571Y-12045476D01*
X-904524Y-12055000D01*
X-895000Y-12064524D01*
X-885476Y-12083571D01*
X-875952Y-12121667D01*
X-875952Y-12169286D01*
X-885476Y-12207381D01*
X-895000Y-12226428D01*
X-904524Y-12235952D01*
X-923571Y-12245476D01*
X-942619Y-12245476D01*
X-961667Y-12235952D01*
X-971190Y-12226428D01*
X-980714Y-12207381D01*
X-990238Y-12169286D01*
X-990238Y-12121667D01*
X-980714Y-12083571D01*
X-971190Y-12064524D01*
X-961667Y-12055000D01*
X-942619Y-12045476D01*
X-790238Y-12245476D02*
X-790238Y-12112143D01*
X-790238Y-12131190D02*
X-780714Y-12121667D01*
X-761667Y-12112143D01*
X-733095Y-12112143D01*
X-714048Y-12121667D01*
X-704524Y-12140714D01*
X-704524Y-12245476D01*
X-704524Y-12140714D02*
X-695000Y-12121667D01*
X-675952Y-12112143D01*
X-647381Y-12112143D01*
X-628333Y-12121667D01*
X-618810Y-12140714D01*
X-618810Y-12245476D01*
X-523571Y-12245476D02*
X-523571Y-12112143D01*
X-523571Y-12131190D02*
X-514048Y-12121667D01*
X-495000Y-12112143D01*
X-466428Y-12112143D01*
X-447381Y-12121667D01*
X-437857Y-12140714D01*
X-437857Y-12245476D01*
X-437857Y-12140714D02*
X-428333Y-12121667D01*
X-409286Y-12112143D01*
X-380714Y-12112143D01*
X-361667Y-12121667D01*
X-352143Y-12140714D01*
X-352143Y-12245476D01*
X38333Y-12035952D02*
X-133095Y-12293095D01*
X295476Y-12045476D02*
X314524Y-12045476D01*
X333571Y-12055000D01*
X343095Y-12064524D01*
X352619Y-12083571D01*
X362143Y-12121667D01*
X362143Y-12169286D01*
X352619Y-12207381D01*
X343095Y-12226428D01*
X333571Y-12235952D01*
X314524Y-12245476D01*
X295476Y-12245476D01*
X276429Y-12235952D01*
X266905Y-12226428D01*
X257381Y-12207381D01*
X247857Y-12169286D01*
X247857Y-12121667D01*
X257381Y-12083571D01*
X266905Y-12064524D01*
X276429Y-12055000D01*
X295476Y-12045476D01*
X447857Y-12226428D02*
X457381Y-12235952D01*
X447857Y-12245476D01*
X438333Y-12235952D01*
X447857Y-12226428D01*
X447857Y-12245476D01*
X581190Y-12045476D02*
X600238Y-12045476D01*
X619286Y-12055000D01*
X628810Y-12064524D01*
X638333Y-12083571D01*
X647857Y-12121667D01*
X647857Y-12169286D01*
X638333Y-12207381D01*
X628810Y-12226428D01*
X619286Y-12235952D01*
X600238Y-12245476D01*
X581190Y-12245476D01*
X562143Y-12235952D01*
X552619Y-12226428D01*
X543095Y-12207381D01*
X533571Y-12169286D01*
X533571Y-12121667D01*
X543095Y-12083571D01*
X552619Y-12064524D01*
X562143Y-12055000D01*
X581190Y-12045476D01*
X819286Y-12112143D02*
X819286Y-12245476D01*
X771667Y-12035952D02*
X724048Y-12178809D01*
X847857Y-12178809D01*
X905000Y-12045476D02*
X1038333Y-12045476D01*
X952619Y-12245476D01*
X1105000Y-12064524D02*
X1114524Y-12055000D01*
X1133571Y-12045476D01*
X1181190Y-12045476D01*
X1200238Y-12055000D01*
X1209762Y-12064524D01*
X1219286Y-12083571D01*
X1219286Y-12102619D01*
X1209762Y-12131190D01*
X1095476Y-12245476D01*
X1219286Y-12245476D01*
X1295476Y-12045476D02*
X1295476Y-12083571D01*
X1371667Y-12045476D02*
X1371667Y-12083571D01*
X1666905Y-12321667D02*
X1657381Y-12312143D01*
X1638333Y-12283571D01*
X1628809Y-12264524D01*
X1619286Y-12235952D01*
X1609762Y-12188333D01*
X1609762Y-12150238D01*
X1619286Y-12102619D01*
X1628809Y-12074048D01*
X1638333Y-12055000D01*
X1657381Y-12026428D01*
X1666905Y-12016905D01*
X1771667Y-12131190D02*
X1752619Y-12121667D01*
X1743095Y-12112143D01*
X1733571Y-12093095D01*
X1733571Y-12083571D01*
X1743095Y-12064524D01*
X1752619Y-12055000D01*
X1771667Y-12045476D01*
X1809762Y-12045476D01*
X1828809Y-12055000D01*
X1838333Y-12064524D01*
X1847857Y-12083571D01*
X1847857Y-12093095D01*
X1838333Y-12112143D01*
X1828809Y-12121667D01*
X1809762Y-12131190D01*
X1771667Y-12131190D01*
X1752619Y-12140714D01*
X1743095Y-12150238D01*
X1733571Y-12169286D01*
X1733571Y-12207381D01*
X1743095Y-12226428D01*
X1752619Y-12235952D01*
X1771667Y-12245476D01*
X1809762Y-12245476D01*
X1828809Y-12235952D01*
X1838333Y-12226428D01*
X1847857Y-12207381D01*
X1847857Y-12169286D01*
X1838333Y-12150238D01*
X1828809Y-12140714D01*
X1809762Y-12131190D01*
X2085952Y-12245476D02*
X2085952Y-12045476D01*
X2171667Y-12245476D02*
X2171667Y-12140714D01*
X2162143Y-12121667D01*
X2143095Y-12112143D01*
X2114524Y-12112143D01*
X2095476Y-12121667D01*
X2085952Y-12131190D01*
X2295476Y-12245476D02*
X2276429Y-12235952D01*
X2266905Y-12226428D01*
X2257381Y-12207381D01*
X2257381Y-12150238D01*
X2266905Y-12131190D01*
X2276429Y-12121667D01*
X2295476Y-12112143D01*
X2324048Y-12112143D01*
X2343095Y-12121667D01*
X2352619Y-12131190D01*
X2362143Y-12150238D01*
X2362143Y-12207381D01*
X2352619Y-12226428D01*
X2343095Y-12235952D01*
X2324048Y-12245476D01*
X2295476Y-12245476D01*
X2476429Y-12245476D02*
X2457381Y-12235952D01*
X2447857Y-12216905D01*
X2447857Y-12045476D01*
X2628810Y-12235952D02*
X2609762Y-12245476D01*
X2571667Y-12245476D01*
X2552619Y-12235952D01*
X2543095Y-12216905D01*
X2543095Y-12140714D01*
X2552619Y-12121667D01*
X2571667Y-12112143D01*
X2609762Y-12112143D01*
X2628810Y-12121667D01*
X2638333Y-12140714D01*
X2638333Y-12159762D01*
X2543095Y-12178809D01*
X2714524Y-12235952D02*
X2733571Y-12245476D01*
X2771667Y-12245476D01*
X2790714Y-12235952D01*
X2800238Y-12216905D01*
X2800238Y-12207381D01*
X2790714Y-12188333D01*
X2771667Y-12178809D01*
X2743095Y-12178809D01*
X2724048Y-12169286D01*
X2714524Y-12150238D01*
X2714524Y-12140714D01*
X2724048Y-12121667D01*
X2743095Y-12112143D01*
X2771667Y-12112143D01*
X2790714Y-12121667D01*
X2866905Y-12321667D02*
X2876428Y-12312143D01*
X2895476Y-12283571D01*
X2905000Y-12264524D01*
X2914524Y-12235952D01*
X2924048Y-12188333D01*
X2924048Y-12150238D01*
X2914524Y-12102619D01*
X2905000Y-12074048D01*
X2895476Y-12055000D01*
X2876428Y-12026428D01*
X2866905Y-12016905D01*
M02*
