G04 #@! TF.GenerationSoftware,KiCad,Pcbnew,(6.0.2-0)*
G04 #@! TF.CreationDate,2022-07-19T14:25:45+02:00*
G04 #@! TF.ProjectId,switch-plate,73776974-6368-42d7-906c-6174652e6b69,rev?*
G04 #@! TF.SameCoordinates,Original*
G04 #@! TF.FileFunction,Legend,Top*
G04 #@! TF.FilePolarity,Positive*
%FSLAX46Y46*%
G04 Gerber Fmt 4.6, Leading zero omitted, Abs format (unit mm)*
G04 Created by KiCad (PCBNEW (6.0.2-0)) date 2022-07-19 14:25:45*
%MOMM*%
%LPD*%
G01*
G04 APERTURE LIST*
%ADD10C,0.150000*%
%ADD11C,2.400000*%
%ADD12C,2.200000*%
G04 APERTURE END LIST*
D10*
X60511904Y-51954380D02*
X60511904Y-50954380D01*
X60511904Y-51430571D02*
X61083333Y-51430571D01*
X61083333Y-51954380D02*
X61083333Y-50954380D01*
X61511904Y-51049619D02*
X61559523Y-51002000D01*
X61654761Y-50954380D01*
X61892857Y-50954380D01*
X61988095Y-51002000D01*
X62035714Y-51049619D01*
X62083333Y-51144857D01*
X62083333Y-51240095D01*
X62035714Y-51382952D01*
X61464285Y-51954380D01*
X62083333Y-51954380D01*
X62988095Y-50954380D02*
X62511904Y-50954380D01*
X62464285Y-51430571D01*
X62511904Y-51382952D01*
X62607142Y-51335333D01*
X62845238Y-51335333D01*
X62940476Y-51382952D01*
X62988095Y-51430571D01*
X63035714Y-51525809D01*
X63035714Y-51763904D01*
X62988095Y-51859142D01*
X62940476Y-51906761D01*
X62845238Y-51954380D01*
X62607142Y-51954380D01*
X62511904Y-51906761D01*
X62464285Y-51859142D01*
X-1238095Y-87054380D02*
X-1238095Y-86054380D01*
X-1238095Y-86530571D02*
X-666666Y-86530571D01*
X-666666Y-87054380D02*
X-666666Y-86054380D01*
X-238095Y-86149619D02*
X-190476Y-86102000D01*
X-95238Y-86054380D01*
X142857Y-86054380D01*
X238095Y-86102000D01*
X285714Y-86149619D01*
X333333Y-86244857D01*
X333333Y-86340095D01*
X285714Y-86482952D01*
X-285714Y-87054380D01*
X333333Y-87054380D01*
X1190476Y-86387714D02*
X1190476Y-87054380D01*
X952380Y-86006761D02*
X714285Y-86721047D01*
X1333333Y-86721047D01*
X139361904Y-81654380D02*
X139361904Y-80654380D01*
X139361904Y-81130571D02*
X139933333Y-81130571D01*
X139933333Y-81654380D02*
X139933333Y-80654380D01*
X140361904Y-80749619D02*
X140409523Y-80702000D01*
X140504761Y-80654380D01*
X140742857Y-80654380D01*
X140838095Y-80702000D01*
X140885714Y-80749619D01*
X140933333Y-80844857D01*
X140933333Y-80940095D01*
X140885714Y-81082952D01*
X140314285Y-81654380D01*
X140933333Y-81654380D01*
X141266666Y-80654380D02*
X141885714Y-80654380D01*
X141552380Y-81035333D01*
X141695238Y-81035333D01*
X141790476Y-81082952D01*
X141838095Y-81130571D01*
X141885714Y-81225809D01*
X141885714Y-81463904D01*
X141838095Y-81559142D01*
X141790476Y-81606761D01*
X141695238Y-81654380D01*
X141409523Y-81654380D01*
X141314285Y-81606761D01*
X141266666Y-81559142D01*
X229136904Y-92454380D02*
X229136904Y-91454380D01*
X229136904Y-91930571D02*
X229708333Y-91930571D01*
X229708333Y-92454380D02*
X229708333Y-91454380D01*
X230136904Y-91549619D02*
X230184523Y-91502000D01*
X230279761Y-91454380D01*
X230517857Y-91454380D01*
X230613095Y-91502000D01*
X230660714Y-91549619D01*
X230708333Y-91644857D01*
X230708333Y-91740095D01*
X230660714Y-91882952D01*
X230089285Y-92454380D01*
X230708333Y-92454380D01*
X231089285Y-91549619D02*
X231136904Y-91502000D01*
X231232142Y-91454380D01*
X231470238Y-91454380D01*
X231565476Y-91502000D01*
X231613095Y-91549619D01*
X231660714Y-91644857D01*
X231660714Y-91740095D01*
X231613095Y-91882952D01*
X231041666Y-92454380D01*
X231660714Y-92454380D01*
X233886904Y-49254380D02*
X233886904Y-48254380D01*
X233886904Y-48730571D02*
X234458333Y-48730571D01*
X234458333Y-49254380D02*
X234458333Y-48254380D01*
X234886904Y-48349619D02*
X234934523Y-48302000D01*
X235029761Y-48254380D01*
X235267857Y-48254380D01*
X235363095Y-48302000D01*
X235410714Y-48349619D01*
X235458333Y-48444857D01*
X235458333Y-48540095D01*
X235410714Y-48682952D01*
X234839285Y-49254380D01*
X235458333Y-49254380D01*
X236410714Y-49254380D02*
X235839285Y-49254380D01*
X236125000Y-49254380D02*
X236125000Y-48254380D01*
X236029761Y-48397238D01*
X235934523Y-48492476D01*
X235839285Y-48540095D01*
X217261904Y-13254379D02*
X217261904Y-12254379D01*
X217261904Y-12730570D02*
X217833333Y-12730570D01*
X217833333Y-13254379D02*
X217833333Y-12254379D01*
X218261904Y-12349618D02*
X218309523Y-12301999D01*
X218404761Y-12254379D01*
X218642857Y-12254379D01*
X218738095Y-12301999D01*
X218785714Y-12349618D01*
X218833333Y-12444856D01*
X218833333Y-12540094D01*
X218785714Y-12682951D01*
X218214285Y-13254379D01*
X218833333Y-13254379D01*
X219452380Y-12254379D02*
X219547619Y-12254379D01*
X219642857Y-12301999D01*
X219690476Y-12349618D01*
X219738095Y-12444856D01*
X219785714Y-12635332D01*
X219785714Y-12873427D01*
X219738095Y-13063903D01*
X219690476Y-13159141D01*
X219642857Y-13206760D01*
X219547619Y-13254379D01*
X219452380Y-13254379D01*
X219357142Y-13206760D01*
X219309523Y-13159141D01*
X219261904Y-13063903D01*
X219214285Y-12873427D01*
X219214285Y-12635332D01*
X219261904Y-12444856D01*
X219309523Y-12349618D01*
X219357142Y-12301999D01*
X219452380Y-12254379D01*
X103261904Y-13254379D02*
X103261904Y-12254379D01*
X103261904Y-12730570D02*
X103833333Y-12730570D01*
X103833333Y-13254379D02*
X103833333Y-12254379D01*
X104833333Y-13254379D02*
X104261904Y-13254379D01*
X104547619Y-13254379D02*
X104547619Y-12254379D01*
X104452380Y-12397237D01*
X104357142Y-12492475D01*
X104261904Y-12540094D01*
X105309523Y-13254379D02*
X105500000Y-13254379D01*
X105595238Y-13206760D01*
X105642857Y-13159141D01*
X105738095Y-13016284D01*
X105785714Y-12825808D01*
X105785714Y-12444856D01*
X105738095Y-12349618D01*
X105690476Y-12301999D01*
X105595238Y-12254379D01*
X105404761Y-12254379D01*
X105309523Y-12301999D01*
X105261904Y-12349618D01*
X105214285Y-12444856D01*
X105214285Y-12682951D01*
X105261904Y-12778189D01*
X105309523Y-12825808D01*
X105404761Y-12873427D01*
X105595238Y-12873427D01*
X105690476Y-12825808D01*
X105738095Y-12778189D01*
X105785714Y-12682951D01*
X27261904Y-13254379D02*
X27261904Y-12254379D01*
X27261904Y-12730570D02*
X27833333Y-12730570D01*
X27833333Y-13254379D02*
X27833333Y-12254379D01*
X28833333Y-13254379D02*
X28261904Y-13254379D01*
X28547619Y-13254379D02*
X28547619Y-12254379D01*
X28452380Y-12397237D01*
X28357142Y-12492475D01*
X28261904Y-12540094D01*
X29404761Y-12682951D02*
X29309523Y-12635332D01*
X29261904Y-12587713D01*
X29214285Y-12492475D01*
X29214285Y-12444856D01*
X29261904Y-12349618D01*
X29309523Y-12301999D01*
X29404761Y-12254379D01*
X29595238Y-12254379D01*
X29690476Y-12301999D01*
X29738095Y-12349618D01*
X29785714Y-12444856D01*
X29785714Y-12492475D01*
X29738095Y-12587713D01*
X29690476Y-12635332D01*
X29595238Y-12682951D01*
X29404761Y-12682951D01*
X29309523Y-12730570D01*
X29261904Y-12778189D01*
X29214285Y-12873427D01*
X29214285Y-13063903D01*
X29261904Y-13159141D01*
X29309523Y-13206760D01*
X29404761Y-13254379D01*
X29595238Y-13254379D01*
X29690476Y-13206760D01*
X29738095Y-13159141D01*
X29785714Y-13063903D01*
X29785714Y-12873427D01*
X29738095Y-12778189D01*
X29690476Y-12730570D01*
X29595238Y-12682951D01*
%LPC*%
D11*
X61750000Y-54000000D03*
X0Y-89100000D03*
X140600000Y-83700000D03*
X230375000Y-94500000D03*
X235125000Y-51300000D03*
X218500000Y-15299999D03*
X104500000Y-15299999D03*
X28500000Y-15299999D03*
D12*
X237500000Y-15299999D03*
X258875000Y-51300000D03*
X270750000Y-87300000D03*
X230375000Y-87300000D03*
X9500000Y-15299999D03*
X82750000Y-90899999D03*
X194750000Y-51300000D03*
X66500000Y-15299999D03*
X9875000Y-79200000D03*
X123500000Y-15299999D03*
X42750000Y-51300000D03*
X180500000Y-15299999D03*
X38000000Y-87300000D03*
X147250000Y-83700000D03*
X225625000Y-65700000D03*
X156750000Y-51300000D03*
X118750000Y-51300000D03*
M02*
