G04 #@! TF.GenerationSoftware,KiCad,Pcbnew,(6.0.2-0)*
G04 #@! TF.CreationDate,2022-07-19T14:25:46+02:00*
G04 #@! TF.ProjectId,switch-plate,73776974-6368-42d7-906c-6174652e6b69,rev?*
G04 #@! TF.SameCoordinates,Original*
G04 #@! TF.FileFunction,Profile,NP*
%FSLAX46Y46*%
G04 Gerber Fmt 4.6, Leading zero omitted, Abs format (unit mm)*
G04 Created by KiCad (PCBNEW (6.0.2-0)) date 2022-07-19 14:25:46*
%MOMM*%
%LPD*%
G01*
G04 APERTURE LIST*
G04 #@! TA.AperFunction,Profile*
%ADD10C,0.100000*%
G04 #@! TD*
G04 #@! TA.AperFunction,Profile*
%ADD11C,0.120000*%
G04 #@! TD*
G04 APERTURE END LIST*
D10*
X154400000Y-110400000D02*
X151300000Y-99000000D01*
X280250000Y-63000000D02*
X280250000Y-45000000D01*
X80750000Y-99000000D02*
X86200000Y-99000000D01*
X285000000Y-45000000D02*
X285000000Y-27000000D01*
X280250000Y-45000000D02*
X285000000Y-45000000D01*
X-14250000Y-45000000D02*
X-14250000Y-81000000D01*
X86200000Y-99000000D02*
X83100000Y-110400000D01*
X152000000Y-99000000D02*
X289750000Y-99000000D01*
X-9500000Y-9000000D02*
X-9500000Y-45000000D01*
X100500000Y-115100000D02*
X104800000Y-99000000D01*
X275500000Y-9000000D02*
X-9500000Y-9000000D01*
X-19000000Y-81000000D02*
X-19000000Y-99000000D01*
X104800000Y-99000000D02*
X132700000Y-99000000D01*
X-14250000Y-81000000D02*
X-19000000Y-81000000D01*
X289750000Y-99000000D02*
X289750000Y-63000000D01*
X275500000Y-27000000D02*
X275500000Y-9000000D01*
X151300000Y-99000000D02*
X152000000Y-99000000D01*
X-9500000Y-45000000D02*
X-14250000Y-45000000D01*
X289750000Y-63000000D02*
X280250000Y-63000000D01*
X132700000Y-99000000D02*
X137000000Y-115100000D01*
X137000000Y-115100000D02*
X154400000Y-110400000D01*
X-19000000Y-99000000D02*
X80750000Y-99000000D01*
X285000000Y-27000000D02*
X275500000Y-27000000D01*
X83100000Y-110400000D02*
X100500000Y-115100000D01*
D11*
X40150000Y-60600000D02*
X40150000Y-47400000D01*
X26350000Y-47400000D02*
X26350000Y-60600000D01*
X39850000Y-47100000D02*
X26650000Y-47100000D01*
X26650000Y-60900000D02*
X39850000Y-60900000D01*
X39850000Y-60900000D02*
G75*
G03*
X40150000Y-60600000I0J300000D01*
G01*
X26350000Y-60600000D02*
G75*
G03*
X26650000Y-60900000I300000J0D01*
G01*
X26650000Y-47100000D02*
G75*
G03*
X26350000Y-47400000I0J-300000D01*
G01*
X40150000Y-47400000D02*
G75*
G03*
X39850000Y-47100000I-300000J0D01*
G01*
X59900000Y-42900000D02*
X73100000Y-42900000D01*
X59600000Y-29400000D02*
X59600000Y-42600000D01*
X73400000Y-42600000D02*
X73400000Y-29400000D01*
X73100000Y-29100000D02*
X59900000Y-29100000D01*
X59600000Y-42600000D02*
G75*
G03*
X59900000Y-42900000I300000J0D01*
G01*
X73400000Y-29400000D02*
G75*
G03*
X73100000Y-29100000I-300000J0D01*
G01*
X73100000Y-42900000D02*
G75*
G03*
X73400000Y-42600000I0J300000D01*
G01*
X59900000Y-29100000D02*
G75*
G03*
X59600000Y-29400000I0J-300000D01*
G01*
X201350000Y-65100000D02*
X188150000Y-65100000D01*
X201650000Y-78600000D02*
X201650000Y-65400000D01*
X187850000Y-65400000D02*
X187850000Y-78600000D01*
X188150000Y-78900000D02*
X201350000Y-78900000D01*
X201350000Y-78900000D02*
G75*
G03*
X201650000Y-78600000I0J300000D01*
G01*
X188150000Y-65100000D02*
G75*
G03*
X187850000Y-65400000I0J-300000D01*
G01*
X187850000Y-78600000D02*
G75*
G03*
X188150000Y-78900000I300000J0D01*
G01*
X201650000Y-65400000D02*
G75*
G03*
X201350000Y-65100000I-300000J0D01*
G01*
X206100000Y-83100000D02*
X192900000Y-83100000D01*
X206400000Y-96600000D02*
X206400000Y-83400000D01*
X192600000Y-83400000D02*
X192600000Y-96600000D01*
X192900000Y-96900000D02*
X206100000Y-96900000D01*
X206400000Y-83400000D02*
G75*
G03*
X206100000Y-83100000I-300000J0D01*
G01*
X192600000Y-96600000D02*
G75*
G03*
X192900000Y-96900000I300000J0D01*
G01*
X192900000Y-83100000D02*
G75*
G03*
X192600000Y-83400000I0J-300000D01*
G01*
X206100000Y-96900000D02*
G75*
G03*
X206400000Y-96600000I0J300000D01*
G01*
X267850000Y-83100000D02*
X254650000Y-83100000D01*
X268150000Y-96600000D02*
X268150000Y-83400000D01*
X254350000Y-83400000D02*
X254350000Y-96600000D01*
X254650000Y-96900000D02*
X267850000Y-96900000D01*
X254350000Y-96600000D02*
G75*
G03*
X254650000Y-96900000I300000J0D01*
G01*
X267850000Y-96900000D02*
G75*
G03*
X268150000Y-96600000I0J300000D01*
G01*
X268150000Y-83400000D02*
G75*
G03*
X267850000Y-83100000I-300000J0D01*
G01*
X254650000Y-83100000D02*
G75*
G03*
X254350000Y-83400000I0J-300000D01*
G01*
X35400000Y-42600000D02*
X35400000Y-29400000D01*
X35100000Y-29100000D02*
X21900000Y-29100000D01*
X21900000Y-42900000D02*
X35100000Y-42900000D01*
X21600000Y-29400000D02*
X21600000Y-42600000D01*
X35400000Y-29400000D02*
G75*
G03*
X35100000Y-29100000I-300000J0D01*
G01*
X35100000Y-42900000D02*
G75*
G03*
X35400000Y-42600000I0J300000D01*
G01*
X21600000Y-42600000D02*
G75*
G03*
X21900000Y-42900000I300000J0D01*
G01*
X21900000Y-29100000D02*
G75*
G03*
X21600000Y-29400000I0J-300000D01*
G01*
X244400000Y-78600000D02*
X244400000Y-65400000D01*
X244100000Y-65100000D02*
X230900000Y-65100000D01*
X230900000Y-78900000D02*
X244100000Y-78900000D01*
X230600000Y-65400000D02*
X230600000Y-78600000D01*
X244100000Y-78900000D02*
G75*
G03*
X244400000Y-78600000I0J300000D01*
G01*
X230900000Y-65100000D02*
G75*
G03*
X230600000Y-65400000I0J-300000D01*
G01*
X244400000Y-65400000D02*
G75*
G03*
X244100000Y-65100000I-300000J0D01*
G01*
X230600000Y-78600000D02*
G75*
G03*
X230900000Y-78900000I300000J0D01*
G01*
X6600000Y-65100000D02*
X-6600000Y-65100000D01*
X6900000Y-78600000D02*
X6900000Y-65400000D01*
X-6600000Y-78900000D02*
X6600000Y-78900000D01*
X-6900000Y-65400000D02*
X-6900000Y-78600000D01*
X-6600000Y-65100000D02*
G75*
G03*
X-6900000Y-65400000I0J-300000D01*
G01*
X6900000Y-65400000D02*
G75*
G03*
X6600000Y-65100000I-300000J0D01*
G01*
X6600000Y-78900000D02*
G75*
G03*
X6900000Y-78600000I0J300000D01*
G01*
X-6900000Y-78600000D02*
G75*
G03*
X-6600000Y-78900000I300000J0D01*
G01*
X153850000Y-47100000D02*
X140650000Y-47100000D01*
X140350000Y-47400000D02*
X140350000Y-60600000D01*
X154150000Y-60600000D02*
X154150000Y-47400000D01*
X140650000Y-60900000D02*
X153850000Y-60900000D01*
X154150000Y-47400000D02*
G75*
G03*
X153850000Y-47100000I-300000J0D01*
G01*
X153850000Y-60900000D02*
G75*
G03*
X154150000Y-60600000I0J300000D01*
G01*
X140350000Y-60600000D02*
G75*
G03*
X140650000Y-60900000I300000J0D01*
G01*
X140650000Y-47100000D02*
G75*
G03*
X140350000Y-47400000I0J-300000D01*
G01*
X49650000Y-78600000D02*
X49650000Y-65400000D01*
X35850000Y-65400000D02*
X35850000Y-78600000D01*
X36150000Y-78900000D02*
X49350000Y-78900000D01*
X49350000Y-65100000D02*
X36150000Y-65100000D01*
X35850000Y-78600000D02*
G75*
G03*
X36150000Y-78900000I300000J0D01*
G01*
X49350000Y-78900000D02*
G75*
G03*
X49650000Y-78600000I0J300000D01*
G01*
X49650000Y-65400000D02*
G75*
G03*
X49350000Y-65100000I-300000J0D01*
G01*
X36150000Y-65100000D02*
G75*
G03*
X35850000Y-65400000I0J-300000D01*
G01*
X287150000Y-78600000D02*
X287150000Y-65400000D01*
X286850000Y-65100000D02*
X273650000Y-65100000D01*
X273350000Y-65400000D02*
X273350000Y-78600000D01*
X273650000Y-78900000D02*
X286850000Y-78900000D01*
X286850000Y-78900000D02*
G75*
G03*
X287150000Y-78600000I0J300000D01*
G01*
X287150000Y-65400000D02*
G75*
G03*
X286850000Y-65100000I-300000J0D01*
G01*
X273650000Y-65100000D02*
G75*
G03*
X273350000Y-65400000I0J-300000D01*
G01*
X273350000Y-78600000D02*
G75*
G03*
X273650000Y-78900000I300000J0D01*
G01*
X102650000Y-60900000D02*
X115850000Y-60900000D01*
X115850000Y-47100000D02*
X102650000Y-47100000D01*
X116150000Y-60600000D02*
X116150000Y-47400000D01*
X102350000Y-47400000D02*
X102350000Y-60600000D01*
X102350000Y-60600000D02*
G75*
G03*
X102650000Y-60900000I300000J0D01*
G01*
X116150000Y-47400000D02*
G75*
G03*
X115850000Y-47100000I-300000J0D01*
G01*
X102650000Y-47100000D02*
G75*
G03*
X102350000Y-47400000I0J-300000D01*
G01*
X115850000Y-60900000D02*
G75*
G03*
X116150000Y-60600000I0J300000D01*
G01*
X20850000Y-47100000D02*
X7650000Y-47100000D01*
X7350000Y-47400000D02*
X7350000Y-60600000D01*
X7650000Y-60900000D02*
X20850000Y-60900000D01*
X21150000Y-60600000D02*
X21150000Y-47400000D01*
X7350000Y-60600000D02*
G75*
G03*
X7650000Y-60900000I300000J0D01*
G01*
X21150000Y-47400000D02*
G75*
G03*
X20850000Y-47100000I-300000J0D01*
G01*
X20850000Y-60900000D02*
G75*
G03*
X21150000Y-60600000I0J300000D01*
G01*
X7650000Y-47100000D02*
G75*
G03*
X7350000Y-47400000I0J-300000D01*
G01*
X154900000Y-42900000D02*
X168100000Y-42900000D01*
X168400000Y-42600000D02*
X168400000Y-29400000D01*
X154600000Y-29400000D02*
X154600000Y-42600000D01*
X168100000Y-29100000D02*
X154900000Y-29100000D01*
X154900000Y-29100000D02*
G75*
G03*
X154600000Y-29400000I0J-300000D01*
G01*
X154600000Y-42600000D02*
G75*
G03*
X154900000Y-42900000I300000J0D01*
G01*
X168400000Y-29400000D02*
G75*
G03*
X168100000Y-29100000I-300000J0D01*
G01*
X168100000Y-42900000D02*
G75*
G03*
X168400000Y-42600000I0J300000D01*
G01*
X58850000Y-47100000D02*
X45650000Y-47100000D01*
X59150000Y-60600000D02*
X59150000Y-47400000D01*
X45350000Y-47400000D02*
X45350000Y-60600000D01*
X45650000Y-60900000D02*
X58850000Y-60900000D01*
X59150000Y-47400000D02*
G75*
G03*
X58850000Y-47100000I-300000J0D01*
G01*
X45350000Y-60600000D02*
G75*
G03*
X45650000Y-60900000I300000J0D01*
G01*
X58850000Y-60900000D02*
G75*
G03*
X59150000Y-60600000I0J300000D01*
G01*
X45650000Y-47100000D02*
G75*
G03*
X45350000Y-47400000I0J-300000D01*
G01*
X73850000Y-65400000D02*
X73850000Y-78600000D01*
X74150000Y-78900000D02*
X87350000Y-78900000D01*
X87350000Y-65100000D02*
X74150000Y-65100000D01*
X87650000Y-78600000D02*
X87650000Y-65400000D01*
X87650000Y-65400000D02*
G75*
G03*
X87350000Y-65100000I-300000J0D01*
G01*
X74150000Y-65100000D02*
G75*
G03*
X73850000Y-65400000I0J-300000D01*
G01*
X73850000Y-78600000D02*
G75*
G03*
X74150000Y-78900000I300000J0D01*
G01*
X87350000Y-78900000D02*
G75*
G03*
X87650000Y-78600000I0J300000D01*
G01*
X31100000Y-11400000D02*
X31100000Y-24600000D01*
X44900000Y-24600000D02*
X44900000Y-11400000D01*
X44600000Y-11100000D02*
X31400000Y-11100000D01*
X31400000Y-24900000D02*
X44600000Y-24900000D01*
X44600000Y-24900000D02*
G75*
G03*
X44900000Y-24600000I0J300000D01*
G01*
X31400000Y-11100000D02*
G75*
G03*
X31100000Y-11400000I0J-300000D01*
G01*
X31100000Y-24600000D02*
G75*
G03*
X31400000Y-24900000I300000J0D01*
G01*
X44900000Y-11400000D02*
G75*
G03*
X44600000Y-11100000I-300000J0D01*
G01*
X120900000Y-24600000D02*
X120900000Y-11400000D01*
X120600000Y-11100000D02*
X107400000Y-11100000D01*
X107400000Y-24900000D02*
X120600000Y-24900000D01*
X107100000Y-11400000D02*
X107100000Y-24600000D01*
X120900000Y-11400000D02*
G75*
G03*
X120600000Y-11100000I-300000J0D01*
G01*
X107100000Y-24600000D02*
G75*
G03*
X107400000Y-24900000I300000J0D01*
G01*
X107400000Y-11100000D02*
G75*
G03*
X107100000Y-11400000I0J-300000D01*
G01*
X120600000Y-24900000D02*
G75*
G03*
X120900000Y-24600000I0J300000D01*
G01*
X54400000Y-96600000D02*
X54400000Y-83400000D01*
X54100000Y-83100000D02*
X40900000Y-83100000D01*
X40900000Y-96900000D02*
X54100000Y-96900000D01*
X40600000Y-83400000D02*
X40600000Y-96600000D01*
X54100000Y-96900000D02*
G75*
G03*
X54400000Y-96600000I0J300000D01*
G01*
X40600000Y-96600000D02*
G75*
G03*
X40900000Y-96900000I300000J0D01*
G01*
X54400000Y-83400000D02*
G75*
G03*
X54100000Y-83100000I-300000J0D01*
G01*
X40900000Y-83100000D02*
G75*
G03*
X40600000Y-83400000I0J-300000D01*
G01*
X93150000Y-78900000D02*
X106350000Y-78900000D01*
X106350000Y-65100000D02*
X93150000Y-65100000D01*
X92850000Y-65400000D02*
X92850000Y-78600000D01*
X106650000Y-78600000D02*
X106650000Y-65400000D01*
X106650000Y-65400000D02*
G75*
G03*
X106350000Y-65100000I-300000J0D01*
G01*
X92850000Y-78600000D02*
G75*
G03*
X93150000Y-78900000I300000J0D01*
G01*
X106350000Y-78900000D02*
G75*
G03*
X106650000Y-78600000I0J300000D01*
G01*
X93150000Y-65100000D02*
G75*
G03*
X92850000Y-65400000I0J-300000D01*
G01*
X249150000Y-96600000D02*
X249150000Y-83400000D01*
X235650000Y-96900000D02*
X248850000Y-96900000D01*
X235350000Y-83400000D02*
X235350000Y-96600000D01*
X248850000Y-83100000D02*
X235650000Y-83100000D01*
X235650000Y-83100000D02*
G75*
G03*
X235350000Y-83400000I0J-300000D01*
G01*
X248850000Y-96900000D02*
G75*
G03*
X249150000Y-96600000I0J300000D01*
G01*
X249150000Y-83400000D02*
G75*
G03*
X248850000Y-83100000I-300000J0D01*
G01*
X235350000Y-96600000D02*
G75*
G03*
X235650000Y-96900000I300000J0D01*
G01*
X96850000Y-47100000D02*
X83650000Y-47100000D01*
X97150000Y-60600000D02*
X97150000Y-47400000D01*
X83350000Y-47400000D02*
X83350000Y-60600000D01*
X83650000Y-60900000D02*
X96850000Y-60900000D01*
X96850000Y-60900000D02*
G75*
G03*
X97150000Y-60600000I0J300000D01*
G01*
X97150000Y-47400000D02*
G75*
G03*
X96850000Y-47100000I-300000J0D01*
G01*
X83650000Y-47100000D02*
G75*
G03*
X83350000Y-47400000I0J-300000D01*
G01*
X83350000Y-60600000D02*
G75*
G03*
X83650000Y-60900000I300000J0D01*
G01*
X135900000Y-42900000D02*
X149100000Y-42900000D01*
X149100000Y-29100000D02*
X135900000Y-29100000D01*
X135600000Y-29400000D02*
X135600000Y-42600000D01*
X149400000Y-42600000D02*
X149400000Y-29400000D01*
X149100000Y-42900000D02*
G75*
G03*
X149400000Y-42600000I0J300000D01*
G01*
X149400000Y-29400000D02*
G75*
G03*
X149100000Y-29100000I-300000J0D01*
G01*
X135900000Y-29100000D02*
G75*
G03*
X135600000Y-29400000I0J-300000D01*
G01*
X135600000Y-42600000D02*
G75*
G03*
X135900000Y-42900000I300000J0D01*
G01*
X144350000Y-65100000D02*
X131150000Y-65100000D01*
X144650000Y-78600000D02*
X144650000Y-65400000D01*
X131150000Y-78900000D02*
X144350000Y-78900000D01*
X130850000Y-65400000D02*
X130850000Y-78600000D01*
X144350000Y-78900000D02*
G75*
G03*
X144650000Y-78600000I0J300000D01*
G01*
X131150000Y-65100000D02*
G75*
G03*
X130850000Y-65400000I0J-300000D01*
G01*
X130850000Y-78600000D02*
G75*
G03*
X131150000Y-78900000I300000J0D01*
G01*
X144650000Y-65400000D02*
G75*
G03*
X144350000Y-65100000I-300000J0D01*
G01*
X103660962Y-94043317D02*
X90910741Y-90626906D01*
X90543317Y-90839038D02*
X87126906Y-103589259D01*
X87339038Y-103956683D02*
X100089259Y-107373094D01*
X100456683Y-107160962D02*
X103873094Y-94410741D01*
X87126906Y-103589259D02*
G75*
G03*
X87339038Y-103956683I289778J-77646D01*
G01*
X100089259Y-107373094D02*
G75*
G03*
X100456683Y-107160962I77646J289778D01*
G01*
X90910741Y-90626906D02*
G75*
G03*
X90543317Y-90839038I-77646J-289778D01*
G01*
X103873094Y-94410741D02*
G75*
G03*
X103660962Y-94043317I-289778J77646D01*
G01*
X150150000Y-78900000D02*
X163350000Y-78900000D01*
X163650000Y-78600000D02*
X163650000Y-65400000D01*
X163350000Y-65100000D02*
X150150000Y-65100000D01*
X149850000Y-65400000D02*
X149850000Y-78600000D01*
X149850000Y-78600000D02*
G75*
G03*
X150150000Y-78900000I300000J0D01*
G01*
X163650000Y-65400000D02*
G75*
G03*
X163350000Y-65100000I-300000J0D01*
G01*
X163350000Y-78900000D02*
G75*
G03*
X163650000Y-78600000I0J300000D01*
G01*
X150150000Y-65100000D02*
G75*
G03*
X149850000Y-65400000I0J-300000D01*
G01*
X168400000Y-96600000D02*
X168400000Y-83400000D01*
X154600000Y-83400000D02*
X154600000Y-96600000D01*
X168100000Y-83100000D02*
X154900000Y-83100000D01*
X154900000Y-96900000D02*
X168100000Y-96900000D01*
X154900000Y-83100000D02*
G75*
G03*
X154600000Y-83400000I0J-300000D01*
G01*
X168100000Y-96900000D02*
G75*
G03*
X168400000Y-96600000I0J300000D01*
G01*
X154600000Y-96600000D02*
G75*
G03*
X154900000Y-96900000I300000J0D01*
G01*
X168400000Y-83400000D02*
G75*
G03*
X168100000Y-83100000I-300000J0D01*
G01*
X78900000Y-42900000D02*
X92100000Y-42900000D01*
X78600000Y-29400000D02*
X78600000Y-42600000D01*
X92100000Y-29100000D02*
X78900000Y-29100000D01*
X92400000Y-42600000D02*
X92400000Y-29400000D01*
X92100000Y-42900000D02*
G75*
G03*
X92400000Y-42600000I0J300000D01*
G01*
X78900000Y-29100000D02*
G75*
G03*
X78600000Y-29400000I0J-300000D01*
G01*
X78600000Y-42600000D02*
G75*
G03*
X78900000Y-42900000I300000J0D01*
G01*
X92400000Y-29400000D02*
G75*
G03*
X92100000Y-29100000I-300000J0D01*
G01*
X254650000Y-78900000D02*
X267850000Y-78900000D01*
X267850000Y-65100000D02*
X254650000Y-65100000D01*
X254350000Y-65400000D02*
X254350000Y-78600000D01*
X268150000Y-78600000D02*
X268150000Y-65400000D01*
X254650000Y-65100000D02*
G75*
G03*
X254350000Y-65400000I0J-300000D01*
G01*
X267850000Y-78900000D02*
G75*
G03*
X268150000Y-78600000I0J300000D01*
G01*
X254350000Y-78600000D02*
G75*
G03*
X254650000Y-78900000I300000J0D01*
G01*
X268150000Y-65400000D02*
G75*
G03*
X267850000Y-65100000I-300000J0D01*
G01*
X-16400000Y-83400000D02*
X-16400000Y-96600000D01*
X-2600000Y-96600000D02*
X-2600000Y-83400000D01*
X-16100000Y-96900000D02*
X-2900000Y-96900000D01*
X-2900000Y-83100000D02*
X-16100000Y-83100000D01*
X-16400000Y-96600000D02*
G75*
G03*
X-16100000Y-96900000I300000J0D01*
G01*
X-16100000Y-83100000D02*
G75*
G03*
X-16400000Y-83400000I0J-300000D01*
G01*
X-2600000Y-83400000D02*
G75*
G03*
X-2900000Y-83100000I-300000J0D01*
G01*
X-2900000Y-96900000D02*
G75*
G03*
X-2600000Y-96600000I0J300000D01*
G01*
X133626906Y-94410741D02*
X137043317Y-107160962D01*
X150373094Y-103589259D02*
X146956683Y-90839038D01*
X137410741Y-107373094D02*
X150160962Y-103956683D01*
X146589259Y-90626906D02*
X133839038Y-94043317D01*
X137043317Y-107160962D02*
G75*
G03*
X137410741Y-107373094I289778J77646D01*
G01*
X133839038Y-94043317D02*
G75*
G03*
X133626906Y-94410741I77646J-289778D01*
G01*
X150160962Y-103956683D02*
G75*
G03*
X150373094Y-103589259I-77646J289778D01*
G01*
X146956683Y-90839038D02*
G75*
G03*
X146589259Y-90626906I-289778J-77646D01*
G01*
X225400000Y-42600000D02*
X225400000Y-29400000D01*
X225100000Y-29100000D02*
X211900000Y-29100000D01*
X211900000Y-42900000D02*
X225100000Y-42900000D01*
X211600000Y-29400000D02*
X211600000Y-42600000D01*
X211900000Y-29100000D02*
G75*
G03*
X211600000Y-29400000I0J-300000D01*
G01*
X225400000Y-29400000D02*
G75*
G03*
X225100000Y-29100000I-300000J0D01*
G01*
X225100000Y-42900000D02*
G75*
G03*
X225400000Y-42600000I0J300000D01*
G01*
X211600000Y-42600000D02*
G75*
G03*
X211900000Y-42900000I300000J0D01*
G01*
X240100000Y-47400000D02*
X240100000Y-60600000D01*
X240400000Y-60900000D02*
X253600000Y-60900000D01*
X253600000Y-47100000D02*
X240400000Y-47100000D01*
X253900000Y-60600000D02*
X253900000Y-47400000D01*
X240100000Y-60600000D02*
G75*
G03*
X240400000Y-60900000I300000J0D01*
G01*
X253600000Y-60900000D02*
G75*
G03*
X253900000Y-60600000I0J300000D01*
G01*
X253900000Y-47400000D02*
G75*
G03*
X253600000Y-47100000I-300000J0D01*
G01*
X240400000Y-47100000D02*
G75*
G03*
X240100000Y-47400000I0J-300000D01*
G01*
X88100000Y-11400000D02*
X88100000Y-24600000D01*
X101900000Y-24600000D02*
X101900000Y-11400000D01*
X88400000Y-24900000D02*
X101600000Y-24900000D01*
X101600000Y-11100000D02*
X88400000Y-11100000D01*
X101600000Y-24900000D02*
G75*
G03*
X101900000Y-24600000I0J300000D01*
G01*
X88100000Y-24600000D02*
G75*
G03*
X88400000Y-24900000I300000J0D01*
G01*
X101900000Y-11400000D02*
G75*
G03*
X101600000Y-11100000I-300000J0D01*
G01*
X88400000Y-11100000D02*
G75*
G03*
X88100000Y-11400000I0J-300000D01*
G01*
X210850000Y-47100000D02*
X197650000Y-47100000D01*
X211150000Y-60600000D02*
X211150000Y-47400000D01*
X197350000Y-47400000D02*
X197350000Y-60600000D01*
X197650000Y-60900000D02*
X210850000Y-60900000D01*
X197350000Y-60600000D02*
G75*
G03*
X197650000Y-60900000I300000J0D01*
G01*
X210850000Y-60900000D02*
G75*
G03*
X211150000Y-60600000I0J300000D01*
G01*
X197650000Y-47100000D02*
G75*
G03*
X197350000Y-47400000I0J-300000D01*
G01*
X211150000Y-47400000D02*
G75*
G03*
X210850000Y-47100000I-300000J0D01*
G01*
X78150000Y-96600000D02*
X78150000Y-83400000D01*
X64650000Y-96900000D02*
X77850000Y-96900000D01*
X77850000Y-83100000D02*
X64650000Y-83100000D01*
X64350000Y-83400000D02*
X64350000Y-96600000D01*
X77850000Y-96900000D02*
G75*
G03*
X78150000Y-96600000I0J300000D01*
G01*
X64350000Y-96600000D02*
G75*
G03*
X64650000Y-96900000I300000J0D01*
G01*
X78150000Y-83400000D02*
G75*
G03*
X77850000Y-83100000I-300000J0D01*
G01*
X64650000Y-83100000D02*
G75*
G03*
X64350000Y-83400000I0J-300000D01*
G01*
X206100000Y-29100000D02*
X192900000Y-29100000D01*
X192900000Y-42900000D02*
X206100000Y-42900000D01*
X206400000Y-42600000D02*
X206400000Y-29400000D01*
X192600000Y-29400000D02*
X192600000Y-42600000D01*
X192600000Y-42600000D02*
G75*
G03*
X192900000Y-42900000I300000J0D01*
G01*
X192900000Y-29100000D02*
G75*
G03*
X192600000Y-29400000I0J-300000D01*
G01*
X206100000Y-42900000D02*
G75*
G03*
X206400000Y-42600000I0J300000D01*
G01*
X206400000Y-29400000D02*
G75*
G03*
X206100000Y-29100000I-300000J0D01*
G01*
X173600000Y-29400000D02*
X173600000Y-42600000D01*
X173900000Y-42900000D02*
X187100000Y-42900000D01*
X187100000Y-29100000D02*
X173900000Y-29100000D01*
X187400000Y-42600000D02*
X187400000Y-29400000D01*
X173600000Y-42600000D02*
G75*
G03*
X173900000Y-42900000I300000J0D01*
G01*
X187100000Y-42900000D02*
G75*
G03*
X187400000Y-42600000I0J300000D01*
G01*
X187400000Y-29400000D02*
G75*
G03*
X187100000Y-29100000I-300000J0D01*
G01*
X173900000Y-29100000D02*
G75*
G03*
X173600000Y-29400000I0J-300000D01*
G01*
X40900000Y-42900000D02*
X54100000Y-42900000D01*
X54100000Y-29100000D02*
X40900000Y-29100000D01*
X40600000Y-29400000D02*
X40600000Y-42600000D01*
X54400000Y-42600000D02*
X54400000Y-29400000D01*
X54100000Y-42900000D02*
G75*
G03*
X54400000Y-42600000I0J300000D01*
G01*
X40900000Y-29100000D02*
G75*
G03*
X40600000Y-29400000I0J-300000D01*
G01*
X40600000Y-42600000D02*
G75*
G03*
X40900000Y-42900000I300000J0D01*
G01*
X54400000Y-29400000D02*
G75*
G03*
X54100000Y-29100000I-300000J0D01*
G01*
X230600000Y-29400000D02*
X230600000Y-42600000D01*
X244100000Y-29100000D02*
X230900000Y-29100000D01*
X230900000Y-42900000D02*
X244100000Y-42900000D01*
X244400000Y-42600000D02*
X244400000Y-29400000D01*
X230900000Y-29100000D02*
G75*
G03*
X230600000Y-29400000I0J-300000D01*
G01*
X244400000Y-29400000D02*
G75*
G03*
X244100000Y-29100000I-300000J0D01*
G01*
X244100000Y-42900000D02*
G75*
G03*
X244400000Y-42600000I0J300000D01*
G01*
X230600000Y-42600000D02*
G75*
G03*
X230900000Y-42900000I300000J0D01*
G01*
X182650000Y-78600000D02*
X182650000Y-65400000D01*
X169150000Y-78900000D02*
X182350000Y-78900000D01*
X182350000Y-65100000D02*
X169150000Y-65100000D01*
X168850000Y-65400000D02*
X168850000Y-78600000D01*
X168850000Y-78600000D02*
G75*
G03*
X169150000Y-78900000I300000J0D01*
G01*
X182350000Y-78900000D02*
G75*
G03*
X182650000Y-78600000I0J300000D01*
G01*
X182650000Y-65400000D02*
G75*
G03*
X182350000Y-65100000I-300000J0D01*
G01*
X169150000Y-65100000D02*
G75*
G03*
X168850000Y-65400000I0J-300000D01*
G01*
X202100000Y-11400000D02*
X202100000Y-24600000D01*
X215900000Y-24600000D02*
X215900000Y-11400000D01*
X202400000Y-24900000D02*
X215600000Y-24900000D01*
X215600000Y-11100000D02*
X202400000Y-11100000D01*
X215600000Y-24900000D02*
G75*
G03*
X215900000Y-24600000I0J300000D01*
G01*
X202100000Y-24600000D02*
G75*
G03*
X202400000Y-24900000I300000J0D01*
G01*
X202400000Y-11100000D02*
G75*
G03*
X202100000Y-11400000I0J-300000D01*
G01*
X215900000Y-11400000D02*
G75*
G03*
X215600000Y-11100000I-300000J0D01*
G01*
X139900000Y-24600000D02*
X139900000Y-11400000D01*
X126400000Y-24900000D02*
X139600000Y-24900000D01*
X139600000Y-11100000D02*
X126400000Y-11100000D01*
X126100000Y-11400000D02*
X126100000Y-24600000D01*
X126400000Y-11100000D02*
G75*
G03*
X126100000Y-11400000I0J-300000D01*
G01*
X139900000Y-11400000D02*
G75*
G03*
X139600000Y-11100000I-300000J0D01*
G01*
X126100000Y-24600000D02*
G75*
G03*
X126400000Y-24900000I300000J0D01*
G01*
X139600000Y-24900000D02*
G75*
G03*
X139900000Y-24600000I0J300000D01*
G01*
X130400000Y-42600000D02*
X130400000Y-29400000D01*
X130100000Y-29100000D02*
X116900000Y-29100000D01*
X116900000Y-42900000D02*
X130100000Y-42900000D01*
X116600000Y-29400000D02*
X116600000Y-42600000D01*
X116600000Y-42600000D02*
G75*
G03*
X116900000Y-42900000I300000J0D01*
G01*
X116900000Y-29100000D02*
G75*
G03*
X116600000Y-29400000I0J-300000D01*
G01*
X130400000Y-29400000D02*
G75*
G03*
X130100000Y-29100000I-300000J0D01*
G01*
X130100000Y-42900000D02*
G75*
G03*
X130400000Y-42600000I0J300000D01*
G01*
X25600000Y-11100000D02*
X12400000Y-11100000D01*
X25900000Y-24600000D02*
X25900000Y-11400000D01*
X12100000Y-11400000D02*
X12100000Y-24600000D01*
X12400000Y-24900000D02*
X25600000Y-24900000D01*
X25900000Y-11400000D02*
G75*
G03*
X25600000Y-11100000I-300000J0D01*
G01*
X25600000Y-24900000D02*
G75*
G03*
X25900000Y-24600000I0J300000D01*
G01*
X12100000Y-24600000D02*
G75*
G03*
X12400000Y-24900000I300000J0D01*
G01*
X12400000Y-11100000D02*
G75*
G03*
X12100000Y-11400000I0J-300000D01*
G01*
X259400000Y-24900000D02*
X272600000Y-24900000D01*
X259100000Y-11400000D02*
X259100000Y-24600000D01*
X272900000Y-24600000D02*
X272900000Y-11400000D01*
X272600000Y-11100000D02*
X259400000Y-11100000D01*
X272900000Y-11400000D02*
G75*
G03*
X272600000Y-11100000I-300000J0D01*
G01*
X259100000Y-24600000D02*
G75*
G03*
X259400000Y-24900000I300000J0D01*
G01*
X272600000Y-24900000D02*
G75*
G03*
X272900000Y-24600000I0J300000D01*
G01*
X259400000Y-11100000D02*
G75*
G03*
X259100000Y-11400000I0J-300000D01*
G01*
X97900000Y-42900000D02*
X111100000Y-42900000D01*
X97600000Y-29400000D02*
X97600000Y-42600000D01*
X111100000Y-29100000D02*
X97900000Y-29100000D01*
X111400000Y-42600000D02*
X111400000Y-29400000D01*
X97600000Y-42600000D02*
G75*
G03*
X97900000Y-42900000I300000J0D01*
G01*
X111400000Y-29400000D02*
G75*
G03*
X111100000Y-29100000I-300000J0D01*
G01*
X97900000Y-29100000D02*
G75*
G03*
X97600000Y-29400000I0J-300000D01*
G01*
X111100000Y-42900000D02*
G75*
G03*
X111400000Y-42600000I0J300000D01*
G01*
X16400000Y-96600000D02*
X16400000Y-83400000D01*
X2900000Y-96900000D02*
X16100000Y-96900000D01*
X16100000Y-83100000D02*
X2900000Y-83100000D01*
X2600000Y-83400000D02*
X2600000Y-96600000D01*
X16400000Y-83400000D02*
G75*
G03*
X16100000Y-83100000I-300000J0D01*
G01*
X16100000Y-96900000D02*
G75*
G03*
X16400000Y-96600000I0J300000D01*
G01*
X2900000Y-83100000D02*
G75*
G03*
X2600000Y-83400000I0J-300000D01*
G01*
X2600000Y-96600000D02*
G75*
G03*
X2900000Y-96900000I300000J0D01*
G01*
X164400000Y-24900000D02*
X177600000Y-24900000D01*
X177600000Y-11100000D02*
X164400000Y-11100000D01*
X177900000Y-24600000D02*
X177900000Y-11400000D01*
X164100000Y-11400000D02*
X164100000Y-24600000D01*
X164100000Y-24600000D02*
G75*
G03*
X164400000Y-24900000I300000J0D01*
G01*
X164400000Y-11100000D02*
G75*
G03*
X164100000Y-11400000I0J-300000D01*
G01*
X177600000Y-24900000D02*
G75*
G03*
X177900000Y-24600000I0J300000D01*
G01*
X177900000Y-11400000D02*
G75*
G03*
X177600000Y-11100000I-300000J0D01*
G01*
X263850000Y-47400000D02*
X263850000Y-60600000D01*
X264150000Y-60900000D02*
X277350000Y-60900000D01*
X277650000Y-60600000D02*
X277650000Y-47400000D01*
X277350000Y-47100000D02*
X264150000Y-47100000D01*
X263850000Y-60600000D02*
G75*
G03*
X264150000Y-60900000I300000J0D01*
G01*
X277650000Y-47400000D02*
G75*
G03*
X277350000Y-47100000I-300000J0D01*
G01*
X264150000Y-47100000D02*
G75*
G03*
X263850000Y-47400000I0J-300000D01*
G01*
X277350000Y-60900000D02*
G75*
G03*
X277650000Y-60600000I0J300000D01*
G01*
X220350000Y-65100000D02*
X207150000Y-65100000D01*
X220650000Y-78600000D02*
X220650000Y-65400000D01*
X207150000Y-78900000D02*
X220350000Y-78900000D01*
X206850000Y-65400000D02*
X206850000Y-78600000D01*
X220350000Y-78900000D02*
G75*
G03*
X220650000Y-78600000I0J300000D01*
G01*
X220650000Y-65400000D02*
G75*
G03*
X220350000Y-65100000I-300000J0D01*
G01*
X206850000Y-78600000D02*
G75*
G03*
X207150000Y-78900000I300000J0D01*
G01*
X207150000Y-65100000D02*
G75*
G03*
X206850000Y-65400000I0J-300000D01*
G01*
X121350000Y-47400000D02*
X121350000Y-60600000D01*
X121650000Y-60900000D02*
X134850000Y-60900000D01*
X134850000Y-47100000D02*
X121650000Y-47100000D01*
X135150000Y-60600000D02*
X135150000Y-47400000D01*
X121350000Y-60600000D02*
G75*
G03*
X121650000Y-60900000I300000J0D01*
G01*
X134850000Y-60900000D02*
G75*
G03*
X135150000Y-60600000I0J300000D01*
G01*
X121650000Y-47100000D02*
G75*
G03*
X121350000Y-47400000I0J-300000D01*
G01*
X135150000Y-47400000D02*
G75*
G03*
X134850000Y-47100000I-300000J0D01*
G01*
X125650000Y-78600000D02*
X125650000Y-65400000D01*
X125350000Y-65100000D02*
X112150000Y-65100000D01*
X111850000Y-65400000D02*
X111850000Y-78600000D01*
X112150000Y-78900000D02*
X125350000Y-78900000D01*
X125350000Y-78900000D02*
G75*
G03*
X125650000Y-78600000I0J300000D01*
G01*
X125650000Y-65400000D02*
G75*
G03*
X125350000Y-65100000I-300000J0D01*
G01*
X111850000Y-78600000D02*
G75*
G03*
X112150000Y-78900000I300000J0D01*
G01*
X112150000Y-65100000D02*
G75*
G03*
X111850000Y-65400000I0J-300000D01*
G01*
X-1850000Y-42900000D02*
X11350000Y-42900000D01*
X11350000Y-29100000D02*
X-1850000Y-29100000D01*
X11650000Y-42600000D02*
X11650000Y-29400000D01*
X-2150000Y-29400000D02*
X-2150000Y-42600000D01*
X-1850000Y-29100000D02*
G75*
G03*
X-2150000Y-29400000I0J-300000D01*
G01*
X11350000Y-42900000D02*
G75*
G03*
X11650000Y-42600000I0J300000D01*
G01*
X-2150000Y-42600000D02*
G75*
G03*
X-1850000Y-42900000I300000J0D01*
G01*
X11650000Y-29400000D02*
G75*
G03*
X11350000Y-29100000I-300000J0D01*
G01*
X82900000Y-24600000D02*
X82900000Y-11400000D01*
X82600000Y-11100000D02*
X69400000Y-11100000D01*
X69100000Y-11400000D02*
X69100000Y-24600000D01*
X69400000Y-24900000D02*
X82600000Y-24900000D01*
X69100000Y-24600000D02*
G75*
G03*
X69400000Y-24900000I300000J0D01*
G01*
X69400000Y-11100000D02*
G75*
G03*
X69100000Y-11400000I0J-300000D01*
G01*
X82600000Y-24900000D02*
G75*
G03*
X82900000Y-24600000I0J300000D01*
G01*
X82900000Y-11400000D02*
G75*
G03*
X82600000Y-11100000I-300000J0D01*
G01*
X68350000Y-65100000D02*
X55150000Y-65100000D01*
X68650000Y-78600000D02*
X68650000Y-65400000D01*
X55150000Y-78900000D02*
X68350000Y-78900000D01*
X54850000Y-65400000D02*
X54850000Y-78600000D01*
X68650000Y-65400000D02*
G75*
G03*
X68350000Y-65100000I-300000J0D01*
G01*
X55150000Y-65100000D02*
G75*
G03*
X54850000Y-65400000I0J-300000D01*
G01*
X68350000Y-78900000D02*
G75*
G03*
X68650000Y-78600000I0J300000D01*
G01*
X54850000Y-78600000D02*
G75*
G03*
X55150000Y-78900000I300000J0D01*
G01*
X191850000Y-47100000D02*
X178650000Y-47100000D01*
X178350000Y-47400000D02*
X178350000Y-60600000D01*
X178650000Y-60900000D02*
X191850000Y-60900000D01*
X192150000Y-60600000D02*
X192150000Y-47400000D01*
X178350000Y-60600000D02*
G75*
G03*
X178650000Y-60900000I300000J0D01*
G01*
X191850000Y-60900000D02*
G75*
G03*
X192150000Y-60600000I0J300000D01*
G01*
X192150000Y-47400000D02*
G75*
G03*
X191850000Y-47100000I-300000J0D01*
G01*
X178650000Y-47100000D02*
G75*
G03*
X178350000Y-47400000I0J-300000D01*
G01*
X145400000Y-24900000D02*
X158600000Y-24900000D01*
X158900000Y-24600000D02*
X158900000Y-11400000D01*
X158600000Y-11100000D02*
X145400000Y-11100000D01*
X145100000Y-11400000D02*
X145100000Y-24600000D01*
X145400000Y-11100000D02*
G75*
G03*
X145100000Y-11400000I0J-300000D01*
G01*
X158900000Y-11400000D02*
G75*
G03*
X158600000Y-11100000I-300000J0D01*
G01*
X145100000Y-24600000D02*
G75*
G03*
X145400000Y-24900000I300000J0D01*
G01*
X158600000Y-24900000D02*
G75*
G03*
X158900000Y-24600000I0J300000D01*
G01*
X-11350000Y-60900000D02*
X1850000Y-60900000D01*
X1850000Y-47100000D02*
X-11350000Y-47100000D01*
X-11650000Y-47400000D02*
X-11650000Y-60600000D01*
X2150000Y-60600000D02*
X2150000Y-47400000D01*
X2150000Y-47400000D02*
G75*
G03*
X1850000Y-47100000I-300000J0D01*
G01*
X-11650000Y-60600000D02*
G75*
G03*
X-11350000Y-60900000I300000J0D01*
G01*
X-11350000Y-47100000D02*
G75*
G03*
X-11650000Y-47400000I0J-300000D01*
G01*
X1850000Y-60900000D02*
G75*
G03*
X2150000Y-60600000I0J300000D01*
G01*
X230150000Y-60600000D02*
X230150000Y-47400000D01*
X216350000Y-47400000D02*
X216350000Y-60600000D01*
X216650000Y-60900000D02*
X229850000Y-60900000D01*
X229850000Y-47100000D02*
X216650000Y-47100000D01*
X230150000Y-47400000D02*
G75*
G03*
X229850000Y-47100000I-300000J0D01*
G01*
X216350000Y-60600000D02*
G75*
G03*
X216650000Y-60900000I300000J0D01*
G01*
X216650000Y-47100000D02*
G75*
G03*
X216350000Y-47400000I0J-300000D01*
G01*
X229850000Y-60900000D02*
G75*
G03*
X230150000Y-60600000I0J300000D01*
G01*
X211600000Y-83400000D02*
X211600000Y-96600000D01*
X225100000Y-83100000D02*
X211900000Y-83100000D01*
X211900000Y-96900000D02*
X225100000Y-96900000D01*
X225400000Y-96600000D02*
X225400000Y-83400000D01*
X211600000Y-96600000D02*
G75*
G03*
X211900000Y-96900000I300000J0D01*
G01*
X225400000Y-83400000D02*
G75*
G03*
X225100000Y-83100000I-300000J0D01*
G01*
X225100000Y-96900000D02*
G75*
G03*
X225400000Y-96600000I0J300000D01*
G01*
X211900000Y-83100000D02*
G75*
G03*
X211600000Y-83400000I0J-300000D01*
G01*
X50400000Y-24900000D02*
X63600000Y-24900000D01*
X63900000Y-24600000D02*
X63900000Y-11400000D01*
X63600000Y-11100000D02*
X50400000Y-11100000D01*
X50100000Y-11400000D02*
X50100000Y-24600000D01*
X50400000Y-11100000D02*
G75*
G03*
X50100000Y-11400000I0J-300000D01*
G01*
X63600000Y-24900000D02*
G75*
G03*
X63900000Y-24600000I0J300000D01*
G01*
X50100000Y-24600000D02*
G75*
G03*
X50400000Y-24900000I300000J0D01*
G01*
X63900000Y-11400000D02*
G75*
G03*
X63600000Y-11100000I-300000J0D01*
G01*
X78150000Y-60600000D02*
X78150000Y-47400000D01*
X64650000Y-60900000D02*
X77850000Y-60900000D01*
X77850000Y-47100000D02*
X64650000Y-47100000D01*
X64350000Y-47400000D02*
X64350000Y-60600000D01*
X78150000Y-47400000D02*
G75*
G03*
X77850000Y-47100000I-300000J0D01*
G01*
X77850000Y-60900000D02*
G75*
G03*
X78150000Y-60600000I0J300000D01*
G01*
X64350000Y-60600000D02*
G75*
G03*
X64650000Y-60900000I300000J0D01*
G01*
X64650000Y-47100000D02*
G75*
G03*
X64350000Y-47400000I0J-300000D01*
G01*
X30650000Y-78600000D02*
X30650000Y-65400000D01*
X16850000Y-65400000D02*
X16850000Y-78600000D01*
X17150000Y-78900000D02*
X30350000Y-78900000D01*
X30350000Y-65100000D02*
X17150000Y-65100000D01*
X30350000Y-78900000D02*
G75*
G03*
X30650000Y-78600000I0J300000D01*
G01*
X17150000Y-65100000D02*
G75*
G03*
X16850000Y-65400000I0J-300000D01*
G01*
X16850000Y-78600000D02*
G75*
G03*
X17150000Y-78900000I300000J0D01*
G01*
X30650000Y-65400000D02*
G75*
G03*
X30350000Y-65100000I-300000J0D01*
G01*
X35400000Y-96600000D02*
X35400000Y-83400000D01*
X35100000Y-83100000D02*
X21900000Y-83100000D01*
X21600000Y-83400000D02*
X21600000Y-96600000D01*
X21900000Y-96900000D02*
X35100000Y-96900000D01*
X21900000Y-83100000D02*
G75*
G03*
X21600000Y-83400000I0J-300000D01*
G01*
X35100000Y-96900000D02*
G75*
G03*
X35400000Y-96600000I0J300000D01*
G01*
X35400000Y-83400000D02*
G75*
G03*
X35100000Y-83100000I-300000J0D01*
G01*
X21600000Y-96600000D02*
G75*
G03*
X21900000Y-96900000I300000J0D01*
G01*
X286850000Y-83100000D02*
X273650000Y-83100000D01*
X273650000Y-96900000D02*
X286850000Y-96900000D01*
X273350000Y-83400000D02*
X273350000Y-96600000D01*
X287150000Y-96600000D02*
X287150000Y-83400000D01*
X287150000Y-83400000D02*
G75*
G03*
X286850000Y-83100000I-300000J0D01*
G01*
X273650000Y-83100000D02*
G75*
G03*
X273350000Y-83400000I0J-300000D01*
G01*
X273350000Y-96600000D02*
G75*
G03*
X273650000Y-96900000I300000J0D01*
G01*
X286850000Y-96900000D02*
G75*
G03*
X287150000Y-96600000I0J300000D01*
G01*
X263100000Y-29100000D02*
X249900000Y-29100000D01*
X263400000Y-42600000D02*
X263400000Y-29400000D01*
X249600000Y-29400000D02*
X249600000Y-42600000D01*
X249900000Y-42900000D02*
X263100000Y-42900000D01*
X249900000Y-29100000D02*
G75*
G03*
X249600000Y-29400000I0J-300000D01*
G01*
X263100000Y-42900000D02*
G75*
G03*
X263400000Y-42600000I0J300000D01*
G01*
X263400000Y-29400000D02*
G75*
G03*
X263100000Y-29100000I-300000J0D01*
G01*
X249600000Y-42600000D02*
G75*
G03*
X249900000Y-42900000I300000J0D01*
G01*
X112150000Y-96900000D02*
X125350000Y-96900000D01*
X125350000Y-83100000D02*
X112150000Y-83100000D01*
X125650000Y-96600000D02*
X125650000Y-83400000D01*
X111850000Y-83400000D02*
X111850000Y-96600000D01*
X125350000Y-96900000D02*
G75*
G03*
X125650000Y-96600000I0J300000D01*
G01*
X111850000Y-96600000D02*
G75*
G03*
X112150000Y-96900000I300000J0D01*
G01*
X112150000Y-83100000D02*
G75*
G03*
X111850000Y-83400000I0J-300000D01*
G01*
X125650000Y-83400000D02*
G75*
G03*
X125350000Y-83100000I-300000J0D01*
G01*
X-6900000Y-11400000D02*
X-6900000Y-24600000D01*
X-6600000Y-24900000D02*
X6600000Y-24900000D01*
X6900000Y-24600000D02*
X6900000Y-11400000D01*
X6600000Y-11100000D02*
X-6600000Y-11100000D01*
X-6900000Y-24600000D02*
G75*
G03*
X-6600000Y-24900000I300000J0D01*
G01*
X6600000Y-24900000D02*
G75*
G03*
X6900000Y-24600000I0J300000D01*
G01*
X-6600000Y-11100000D02*
G75*
G03*
X-6900000Y-11400000I0J-300000D01*
G01*
X6900000Y-11400000D02*
G75*
G03*
X6600000Y-11100000I-300000J0D01*
G01*
X221100000Y-11400000D02*
X221100000Y-24600000D01*
X234600000Y-11100000D02*
X221400000Y-11100000D01*
X221400000Y-24900000D02*
X234600000Y-24900000D01*
X234900000Y-24600000D02*
X234900000Y-11400000D01*
X234900000Y-11400000D02*
G75*
G03*
X234600000Y-11100000I-300000J0D01*
G01*
X221400000Y-11100000D02*
G75*
G03*
X221100000Y-11400000I0J-300000D01*
G01*
X221100000Y-24600000D02*
G75*
G03*
X221400000Y-24900000I300000J0D01*
G01*
X234600000Y-24900000D02*
G75*
G03*
X234900000Y-24600000I0J300000D01*
G01*
X159350000Y-47400000D02*
X159350000Y-60600000D01*
X172850000Y-47100000D02*
X159650000Y-47100000D01*
X159650000Y-60900000D02*
X172850000Y-60900000D01*
X173150000Y-60600000D02*
X173150000Y-47400000D01*
X172850000Y-60900000D02*
G75*
G03*
X173150000Y-60600000I0J300000D01*
G01*
X173150000Y-47400000D02*
G75*
G03*
X172850000Y-47100000I-300000J0D01*
G01*
X159350000Y-60600000D02*
G75*
G03*
X159650000Y-60900000I300000J0D01*
G01*
X159650000Y-47100000D02*
G75*
G03*
X159350000Y-47400000I0J-300000D01*
G01*
X253600000Y-11100000D02*
X240400000Y-11100000D01*
X253900000Y-24600000D02*
X253900000Y-11400000D01*
X240100000Y-11400000D02*
X240100000Y-24600000D01*
X240400000Y-24900000D02*
X253600000Y-24900000D01*
X240100000Y-24600000D02*
G75*
G03*
X240400000Y-24900000I300000J0D01*
G01*
X253600000Y-24900000D02*
G75*
G03*
X253900000Y-24600000I0J300000D01*
G01*
X240400000Y-11100000D02*
G75*
G03*
X240100000Y-11400000I0J-300000D01*
G01*
X253900000Y-11400000D02*
G75*
G03*
X253600000Y-11100000I-300000J0D01*
G01*
X183100000Y-11400000D02*
X183100000Y-24600000D01*
X196900000Y-24600000D02*
X196900000Y-11400000D01*
X183400000Y-24900000D02*
X196600000Y-24900000D01*
X196600000Y-11100000D02*
X183400000Y-11100000D01*
X183100000Y-24600000D02*
G75*
G03*
X183400000Y-24900000I300000J0D01*
G01*
X196900000Y-11400000D02*
G75*
G03*
X196600000Y-11100000I-300000J0D01*
G01*
X183400000Y-11100000D02*
G75*
G03*
X183100000Y-11400000I0J-300000D01*
G01*
X196600000Y-24900000D02*
G75*
G03*
X196900000Y-24600000I0J300000D01*
G01*
X187100000Y-83100000D02*
X173900000Y-83100000D01*
X173900000Y-96900000D02*
X187100000Y-96900000D01*
X173600000Y-83400000D02*
X173600000Y-96600000D01*
X187400000Y-96600000D02*
X187400000Y-83400000D01*
X187100000Y-96900000D02*
G75*
G03*
X187400000Y-96600000I0J300000D01*
G01*
X173600000Y-96600000D02*
G75*
G03*
X173900000Y-96900000I300000J0D01*
G01*
X187400000Y-83400000D02*
G75*
G03*
X187100000Y-83100000I-300000J0D01*
G01*
X173900000Y-83100000D02*
G75*
G03*
X173600000Y-83400000I0J-300000D01*
G01*
X282100000Y-29100000D02*
X268900000Y-29100000D01*
X282400000Y-42600000D02*
X282400000Y-29400000D01*
X268900000Y-42900000D02*
X282100000Y-42900000D01*
X268600000Y-29400000D02*
X268600000Y-42600000D01*
X282400000Y-29400000D02*
G75*
G03*
X282100000Y-29100000I-300000J0D01*
G01*
X282100000Y-42900000D02*
G75*
G03*
X282400000Y-42600000I0J300000D01*
G01*
X268600000Y-42600000D02*
G75*
G03*
X268900000Y-42900000I300000J0D01*
G01*
X268900000Y-29100000D02*
G75*
G03*
X268600000Y-29400000I0J-300000D01*
G01*
M02*
