G04 #@! TF.GenerationSoftware,KiCad,Pcbnew,(6.0.2-0)*
G04 #@! TF.CreationDate,2022-07-19T14:21:49+02:00*
G04 #@! TF.ProjectId,choc-keyboard,63686f63-2d6b-4657-9962-6f6172642e6b,rev?*
G04 #@! TF.SameCoordinates,Original*
G04 #@! TF.FileFunction,Paste,Bot*
G04 #@! TF.FilePolarity,Positive*
%FSLAX46Y46*%
G04 Gerber Fmt 4.6, Leading zero omitted, Abs format (unit mm)*
G04 Created by KiCad (PCBNEW (6.0.2-0)) date 2022-07-19 14:21:49*
%MOMM*%
%LPD*%
G01*
G04 APERTURE LIST*
G04 Aperture macros list*
%AMRoundRect*
0 Rectangle with rounded corners*
0 $1 Rounding radius*
0 $2 $3 $4 $5 $6 $7 $8 $9 X,Y pos of 4 corners*
0 Add a 4 corners polygon primitive as box body*
4,1,4,$2,$3,$4,$5,$6,$7,$8,$9,$2,$3,0*
0 Add four circle primitives for the rounded corners*
1,1,$1+$1,$2,$3*
1,1,$1+$1,$4,$5*
1,1,$1+$1,$6,$7*
1,1,$1+$1,$8,$9*
0 Add four rect primitives between the rounded corners*
20,1,$1+$1,$2,$3,$4,$5,0*
20,1,$1+$1,$4,$5,$6,$7,0*
20,1,$1+$1,$6,$7,$8,$9,0*
20,1,$1+$1,$8,$9,$2,$3,0*%
%AMRotRect*
0 Rectangle, with rotation*
0 The origin of the aperture is its center*
0 $1 length*
0 $2 width*
0 $3 Rotation angle, in degrees counterclockwise*
0 Add horizontal line*
21,1,$1,$2,0,0,$3*%
G04 Aperture macros list end*
%ADD10RoundRect,0.190000X0.760000X1.060000X-0.760000X1.060000X-0.760000X-1.060000X0.760000X-1.060000X0*%
%ADD11RoundRect,0.250000X1.025000X1.000000X-1.025000X1.000000X-1.025000X-1.000000X1.025000X-1.000000X0*%
%ADD12RoundRect,0.250000X1.675000X1.000000X-1.675000X1.000000X-1.675000X-1.000000X1.675000X-1.000000X0*%
%ADD13R,1.300000X1.200000*%
%ADD14RoundRect,0.250000X1.250000X1.000000X-1.250000X1.000000X-1.250000X-1.000000X1.250000X-1.000000X0*%
%ADD15RoundRect,0.650000X-0.650000X-0.850000X0.650000X-0.850000X0.650000X0.850000X-0.650000X0.850000X0*%
%ADD16RoundRect,0.250000X0.700636X-1.248893X1.231215X0.731255X-0.700636X1.248893X-1.231215X-0.731255X0*%
%ADD17RoundRect,0.250000X0.532404X-1.876745X1.399448X1.359107X-0.532404X1.876745X-1.399448X-1.359107X0*%
%ADD18RoundRect,0.190000X0.827179X-1.008452X1.220584X0.459755X-0.827179X1.008452X-1.220584X-0.459755X0*%
%ADD19RotRect,1.300000X1.200000X75.000000*%
%ADD20RoundRect,0.250000X0.642402X-1.466226X1.289450X0.948588X-0.642402X1.466226X-1.289450X-0.948588X0*%
%ADD21RoundRect,0.650000X-0.652805X0.847848X-0.989269X-0.407856X0.652805X-0.847848X0.989269X0.407856X0*%
%ADD22RotRect,1.300000X1.200000X285.000000*%
%ADD23RoundRect,0.250000X-1.399448X1.359107X-0.532404X-1.876745X1.399448X-1.359107X0.532404X1.876745X0*%
%ADD24RoundRect,0.190000X-1.220584X0.459755X-0.827179X-1.008452X1.220584X-0.459755X0.827179X1.008452X0*%
%ADD25RoundRect,0.250000X-1.231215X0.731255X-0.700636X-1.248893X1.231215X-0.731255X0.700636X1.248893X0*%
%ADD26RoundRect,0.250000X-1.289450X0.948588X-0.642402X-1.466226X1.289450X-0.948588X0.642402X1.466226X0*%
%ADD27RoundRect,0.650000X0.989269X-0.407856X0.652805X0.847848X-0.989269X0.407856X-0.652805X-0.847848X0*%
%ADD28RoundRect,0.050000X0.200000X1.200000X-0.200000X1.200000X-0.200000X-1.200000X0.200000X-1.200000X0*%
G04 APERTURE END LIST*
D10*
X86500000Y-21800000D03*
D11*
X98500000Y-24000000D03*
D12*
X97850000Y-24000000D03*
D13*
X97660000Y-20610000D03*
D14*
X87250000Y-21800000D03*
D13*
X101360000Y-20610000D03*
D15*
X98350000Y-13300000D03*
X91640000Y-13300000D03*
D11*
X3500000Y-24000000D03*
D10*
X-8500000Y-21800000D03*
D12*
X2850000Y-24000000D03*
D13*
X2660000Y-20610000D03*
D14*
X-7750000Y-21800000D03*
D13*
X6360000Y-20610000D03*
D15*
X3350000Y-13300000D03*
X-3360000Y-13300000D03*
D10*
X58000000Y-39800000D03*
D12*
X69350000Y-42000000D03*
D13*
X69160000Y-38610000D03*
D11*
X70000000Y-42000000D03*
D14*
X58750000Y-39800000D03*
D13*
X72860000Y-38610000D03*
D15*
X69850000Y-31300000D03*
X63140000Y-31300000D03*
D10*
X72250000Y-75800000D03*
D12*
X83600000Y-78000000D03*
D11*
X84250000Y-78000000D03*
D13*
X83410000Y-74610000D03*
D14*
X73000000Y-75800000D03*
D13*
X87110000Y-74610000D03*
D15*
X84100000Y-67300000D03*
X77390000Y-67300000D03*
D16*
X88798578Y-100827826D03*
D17*
X88966811Y-100199974D03*
D18*
X94029444Y-89806118D03*
D19*
X92290475Y-100893845D03*
D20*
X93835329Y-90530562D03*
D19*
X91332844Y-104467771D03*
D21*
X99172808Y-103452301D03*
X100909483Y-96970939D03*
D12*
X121600000Y-96000000D03*
D11*
X122250000Y-96000000D03*
D13*
X121410000Y-92610000D03*
D10*
X110250000Y-93800000D03*
D14*
X111000000Y-93800000D03*
D13*
X125110000Y-92610000D03*
D15*
X122100000Y-85300000D03*
X115390000Y-85300000D03*
D10*
X62750000Y-93800000D03*
D12*
X74100000Y-96000000D03*
D13*
X73910000Y-92610000D03*
D11*
X74750000Y-96000000D03*
D14*
X63500000Y-93800000D03*
D13*
X77610000Y-92610000D03*
D15*
X74600000Y-85300000D03*
X67890000Y-85300000D03*
D13*
X145160000Y-38610000D03*
D12*
X145350000Y-42000000D03*
D11*
X146000000Y-42000000D03*
D10*
X134000000Y-39800000D03*
D14*
X134750000Y-39800000D03*
D13*
X148860000Y-38610000D03*
D15*
X145850000Y-31300000D03*
X139140000Y-31300000D03*
D11*
X269500000Y-24000000D03*
D13*
X268660000Y-20610000D03*
D10*
X257500000Y-21800000D03*
D12*
X268850000Y-24000000D03*
D14*
X258250000Y-21800000D03*
D13*
X272360000Y-20610000D03*
D15*
X269350000Y-13300000D03*
X262640000Y-13300000D03*
D10*
X110250000Y-75800000D03*
D13*
X121410000Y-74610000D03*
D12*
X121600000Y-78000000D03*
D11*
X122250000Y-78000000D03*
D14*
X111000000Y-75800000D03*
D13*
X125110000Y-74610000D03*
D15*
X122100000Y-67300000D03*
X115390000Y-67300000D03*
D13*
X26410000Y-74610000D03*
D12*
X26600000Y-78000000D03*
D10*
X15250000Y-75800000D03*
D11*
X27250000Y-78000000D03*
D14*
X16000000Y-75800000D03*
D13*
X30110000Y-74610000D03*
D15*
X27100000Y-67300000D03*
X20390000Y-67300000D03*
D10*
X219500000Y-21800000D03*
D12*
X230850000Y-24000000D03*
D11*
X231500000Y-24000000D03*
D13*
X230660000Y-20610000D03*
D14*
X220250000Y-21800000D03*
D13*
X234360000Y-20610000D03*
D15*
X231350000Y-13300000D03*
X224640000Y-13300000D03*
D10*
X210000000Y-39800000D03*
D11*
X222000000Y-42000000D03*
D12*
X221350000Y-42000000D03*
D13*
X221160000Y-38610000D03*
D14*
X210750000Y-39800000D03*
D13*
X224860000Y-38610000D03*
D15*
X221850000Y-31300000D03*
X215140000Y-31300000D03*
D11*
X184000000Y-42000000D03*
D12*
X183350000Y-42000000D03*
D10*
X172000000Y-39800000D03*
D13*
X183160000Y-38610000D03*
D14*
X172750000Y-39800000D03*
D13*
X186860000Y-38610000D03*
D15*
X183850000Y-31300000D03*
X177140000Y-31300000D03*
D11*
X203000000Y-42000000D03*
D10*
X191000000Y-39800000D03*
D12*
X202350000Y-42000000D03*
D13*
X202160000Y-38610000D03*
D14*
X191750000Y-39800000D03*
D13*
X205860000Y-38610000D03*
D15*
X202850000Y-31300000D03*
X196140000Y-31300000D03*
D10*
X233750000Y-93800000D03*
D12*
X245100000Y-96000000D03*
D11*
X245750000Y-96000000D03*
D13*
X244910000Y-92610000D03*
D14*
X234500000Y-93800000D03*
D13*
X248610000Y-92610000D03*
D15*
X245600000Y-85300000D03*
X238890000Y-85300000D03*
D10*
X81750000Y-57800000D03*
D11*
X93750000Y-60000000D03*
D13*
X92910000Y-56610000D03*
D12*
X93100000Y-60000000D03*
D14*
X82500000Y-57800000D03*
D13*
X96610000Y-56610000D03*
D15*
X93600000Y-49300000D03*
X86890000Y-49300000D03*
D10*
X-8500000Y-75800000D03*
D12*
X2850000Y-78000000D03*
D13*
X2660000Y-74610000D03*
D11*
X3500000Y-78000000D03*
D14*
X-7750000Y-75800000D03*
D13*
X6360000Y-74610000D03*
D15*
X3350000Y-67300000D03*
X-3360000Y-67300000D03*
D12*
X31350000Y-42000000D03*
D10*
X20000000Y-39800000D03*
D13*
X31160000Y-38610000D03*
D11*
X32000000Y-42000000D03*
D14*
X20750000Y-39800000D03*
D13*
X34860000Y-38610000D03*
D15*
X31850000Y-31300000D03*
X25140000Y-31300000D03*
D13*
X12160000Y-92610000D03*
D10*
X1000000Y-93800000D03*
D11*
X13000000Y-96000000D03*
D12*
X12350000Y-96000000D03*
D14*
X1750000Y-93800000D03*
D13*
X15860000Y-92610000D03*
D15*
X12850000Y-85300000D03*
X6140000Y-85300000D03*
D13*
X16910000Y-56610000D03*
D12*
X17100000Y-60000000D03*
D11*
X17750000Y-60000000D03*
D10*
X5750000Y-57800000D03*
D14*
X6500000Y-57800000D03*
D13*
X20610000Y-56610000D03*
D15*
X17600000Y-49300000D03*
X10890000Y-49300000D03*
D11*
X260000000Y-42000000D03*
D13*
X259160000Y-38610000D03*
D12*
X259350000Y-42000000D03*
D10*
X248000000Y-39800000D03*
D14*
X248750000Y-39800000D03*
D13*
X262860000Y-38610000D03*
D15*
X259850000Y-31300000D03*
X253140000Y-31300000D03*
D10*
X39000000Y-93800000D03*
D11*
X51000000Y-96000000D03*
D13*
X50160000Y-92610000D03*
D12*
X50350000Y-96000000D03*
D14*
X39750000Y-93800000D03*
D13*
X53860000Y-92610000D03*
D15*
X50850000Y-85300000D03*
X44140000Y-85300000D03*
D12*
X55100000Y-60000000D03*
D13*
X54910000Y-56610000D03*
D11*
X55750000Y-60000000D03*
D10*
X43750000Y-57800000D03*
D14*
X44500000Y-57800000D03*
D13*
X58610000Y-56610000D03*
D15*
X55600000Y-49300000D03*
X48890000Y-49300000D03*
D11*
X51000000Y-42000000D03*
D12*
X50350000Y-42000000D03*
D13*
X50160000Y-38610000D03*
D10*
X39000000Y-39800000D03*
D14*
X39750000Y-39800000D03*
D13*
X53860000Y-38610000D03*
D15*
X50850000Y-31300000D03*
X44140000Y-31300000D03*
D12*
X249850000Y-60000000D03*
D10*
X238500000Y-57800000D03*
D11*
X250500000Y-60000000D03*
D13*
X249660000Y-56610000D03*
D14*
X239250000Y-57800000D03*
D13*
X253360000Y-56610000D03*
D15*
X250350000Y-49300000D03*
X243640000Y-49300000D03*
D12*
X116850000Y-24000000D03*
D11*
X117500000Y-24000000D03*
D10*
X105500000Y-21800000D03*
D13*
X116660000Y-20610000D03*
D14*
X106250000Y-21800000D03*
D13*
X120360000Y-20610000D03*
D15*
X117350000Y-13300000D03*
X110640000Y-13300000D03*
D12*
X-1900000Y-60000000D03*
D10*
X-13250000Y-57800000D03*
D11*
X-1250000Y-60000000D03*
D13*
X-2090000Y-56610000D03*
D14*
X-12500000Y-57800000D03*
D13*
X1610000Y-56610000D03*
D15*
X-1400000Y-49300000D03*
X-8110000Y-49300000D03*
D11*
X165000000Y-96000000D03*
D10*
X153000000Y-93800000D03*
D12*
X164350000Y-96000000D03*
D13*
X164160000Y-92610000D03*
D14*
X153750000Y-93800000D03*
D13*
X167860000Y-92610000D03*
D15*
X164850000Y-85300000D03*
X158140000Y-85300000D03*
D11*
X217250000Y-78000000D03*
D10*
X205250000Y-75800000D03*
D12*
X216600000Y-78000000D03*
D13*
X216410000Y-74610000D03*
D14*
X206000000Y-75800000D03*
D13*
X220110000Y-74610000D03*
D15*
X217100000Y-67300000D03*
X210390000Y-67300000D03*
D10*
X262250000Y-57800000D03*
D13*
X273410000Y-56610000D03*
D12*
X273600000Y-60000000D03*
D11*
X274250000Y-60000000D03*
D14*
X263000000Y-57800000D03*
D13*
X277110000Y-56610000D03*
D15*
X274100000Y-49300000D03*
X267390000Y-49300000D03*
D11*
X198250000Y-78000000D03*
D10*
X186250000Y-75800000D03*
D13*
X197410000Y-74610000D03*
D12*
X197600000Y-78000000D03*
D14*
X187000000Y-75800000D03*
D13*
X201110000Y-74610000D03*
D15*
X198100000Y-67300000D03*
X191390000Y-67300000D03*
D13*
X140410000Y-74610000D03*
D10*
X129250000Y-75800000D03*
D12*
X140600000Y-78000000D03*
D11*
X141250000Y-78000000D03*
D14*
X130000000Y-75800000D03*
D13*
X144110000Y-74610000D03*
D15*
X141100000Y-67300000D03*
X134390000Y-67300000D03*
D22*
X143832608Y-95755120D03*
D23*
X147057921Y-94694197D03*
D24*
X147870480Y-106226857D03*
D25*
X146889688Y-94066345D03*
D26*
X147676366Y-105502413D03*
D22*
X142874977Y-92181194D03*
D27*
X136593105Y-96980598D03*
X138329781Y-103461960D03*
D11*
X264750000Y-78000000D03*
D12*
X264100000Y-78000000D03*
D13*
X263910000Y-74610000D03*
D10*
X252750000Y-75800000D03*
D14*
X253500000Y-75800000D03*
D13*
X267610000Y-74610000D03*
D15*
X264600000Y-67300000D03*
X257890000Y-67300000D03*
D12*
X183350000Y-96000000D03*
D13*
X183160000Y-92610000D03*
D11*
X184000000Y-96000000D03*
D10*
X172000000Y-93800000D03*
D14*
X172750000Y-93800000D03*
D13*
X186860000Y-92610000D03*
D15*
X183850000Y-85300000D03*
X177140000Y-85300000D03*
D12*
X207100000Y-60000000D03*
D11*
X207750000Y-60000000D03*
D10*
X195750000Y-57800000D03*
D13*
X206910000Y-56610000D03*
D14*
X196500000Y-57800000D03*
D13*
X210610000Y-56610000D03*
D15*
X207600000Y-49300000D03*
X200890000Y-49300000D03*
D12*
X226100000Y-60000000D03*
D11*
X226750000Y-60000000D03*
D10*
X214750000Y-57800000D03*
D13*
X225910000Y-56610000D03*
D14*
X215500000Y-57800000D03*
D13*
X229610000Y-56610000D03*
D15*
X226600000Y-49300000D03*
X219890000Y-49300000D03*
D12*
X59850000Y-24000000D03*
D11*
X60500000Y-24000000D03*
D10*
X48500000Y-21800000D03*
D13*
X59660000Y-20610000D03*
D14*
X49250000Y-21800000D03*
D13*
X63360000Y-20610000D03*
D15*
X60350000Y-13300000D03*
X53640000Y-13300000D03*
D11*
X127000000Y-42000000D03*
D10*
X115000000Y-39800000D03*
D12*
X126350000Y-42000000D03*
D13*
X126160000Y-38610000D03*
D14*
X115750000Y-39800000D03*
D13*
X129860000Y-38610000D03*
D15*
X126850000Y-31300000D03*
X120140000Y-31300000D03*
D12*
X36100000Y-60000000D03*
D13*
X35910000Y-56610000D03*
D10*
X24750000Y-57800000D03*
D11*
X36750000Y-60000000D03*
D14*
X25500000Y-57800000D03*
D13*
X39610000Y-56610000D03*
D15*
X36600000Y-49300000D03*
X29890000Y-49300000D03*
D10*
X91250000Y-75800000D03*
D11*
X103250000Y-78000000D03*
D13*
X102410000Y-74610000D03*
D12*
X102600000Y-78000000D03*
D14*
X92000000Y-75800000D03*
D13*
X106110000Y-74610000D03*
D15*
X103100000Y-67300000D03*
X96390000Y-67300000D03*
D11*
X131750000Y-60000000D03*
D13*
X130910000Y-56610000D03*
D10*
X119750000Y-57800000D03*
D12*
X131100000Y-60000000D03*
D14*
X120500000Y-57800000D03*
D13*
X134610000Y-56610000D03*
D15*
X131600000Y-49300000D03*
X124890000Y-49300000D03*
D12*
X21850000Y-24000000D03*
D13*
X21660000Y-20610000D03*
D10*
X10500000Y-21800000D03*
D11*
X22500000Y-24000000D03*
D14*
X11250000Y-21800000D03*
D13*
X25360000Y-20610000D03*
D15*
X22350000Y-13300000D03*
X15640000Y-13300000D03*
D12*
X169100000Y-60000000D03*
D10*
X157750000Y-57800000D03*
D13*
X168910000Y-56610000D03*
D11*
X169750000Y-60000000D03*
D14*
X158500000Y-57800000D03*
D13*
X172610000Y-56610000D03*
D15*
X169600000Y-49300000D03*
X162890000Y-49300000D03*
D13*
X149910000Y-56610000D03*
D11*
X150750000Y-60000000D03*
D12*
X150100000Y-60000000D03*
D10*
X138750000Y-57800000D03*
D14*
X139500000Y-57800000D03*
D13*
X153610000Y-56610000D03*
D15*
X150600000Y-49300000D03*
X143890000Y-49300000D03*
D13*
X31160000Y-92610000D03*
D10*
X20000000Y-93800000D03*
D11*
X32000000Y-96000000D03*
D12*
X31350000Y-96000000D03*
D14*
X20750000Y-93800000D03*
D13*
X34860000Y-92610000D03*
D15*
X31850000Y-85300000D03*
X25140000Y-85300000D03*
D12*
X202350000Y-96000000D03*
D10*
X191000000Y-93800000D03*
D11*
X203000000Y-96000000D03*
D13*
X202160000Y-92610000D03*
D14*
X191750000Y-93800000D03*
D13*
X205860000Y-92610000D03*
D15*
X202850000Y-85300000D03*
X196140000Y-85300000D03*
D10*
X67500000Y-21800000D03*
D11*
X79500000Y-24000000D03*
D13*
X78660000Y-20610000D03*
D12*
X78850000Y-24000000D03*
D14*
X68250000Y-21800000D03*
D13*
X82360000Y-20610000D03*
D15*
X79350000Y-13300000D03*
X72640000Y-13300000D03*
D11*
X212500000Y-24000000D03*
D13*
X211660000Y-20610000D03*
D10*
X200500000Y-21800000D03*
D12*
X211850000Y-24000000D03*
D14*
X201250000Y-21800000D03*
D13*
X215360000Y-20610000D03*
D15*
X212350000Y-13300000D03*
X205640000Y-13300000D03*
D12*
X7600000Y-42000000D03*
D28*
X7000000Y-39870000D03*
D11*
X8250000Y-42000000D03*
D10*
X-3750000Y-39800000D03*
D13*
X7410000Y-38610000D03*
D14*
X-3100000Y-39800000D03*
D13*
X11110000Y-38610000D03*
D15*
X8060000Y-34010000D03*
X1560000Y-33750000D03*
D11*
X46250000Y-78000000D03*
D13*
X45410000Y-74610000D03*
D12*
X45600000Y-78000000D03*
D10*
X34250000Y-75800000D03*
D14*
X35000000Y-75800000D03*
D13*
X49110000Y-74610000D03*
D15*
X46100000Y-67300000D03*
X39390000Y-67300000D03*
D10*
X77000000Y-39800000D03*
D11*
X89000000Y-42000000D03*
D13*
X88160000Y-38610000D03*
D12*
X88350000Y-42000000D03*
D14*
X77750000Y-39800000D03*
D13*
X91860000Y-38610000D03*
D15*
X88850000Y-31300000D03*
X82140000Y-31300000D03*
D11*
X155500000Y-24000000D03*
D13*
X154660000Y-20610000D03*
D10*
X143500000Y-21800000D03*
D12*
X154850000Y-24000000D03*
D14*
X144250000Y-21800000D03*
D13*
X158360000Y-20610000D03*
D15*
X155350000Y-13300000D03*
X148640000Y-13300000D03*
D13*
X192660000Y-20610000D03*
D12*
X192850000Y-24000000D03*
D11*
X193500000Y-24000000D03*
D10*
X181500000Y-21800000D03*
D14*
X182250000Y-21800000D03*
D13*
X196360000Y-20610000D03*
D15*
X193350000Y-13300000D03*
X186640000Y-13300000D03*
D12*
X164350000Y-42000000D03*
D10*
X153000000Y-39800000D03*
D13*
X164160000Y-38610000D03*
D11*
X165000000Y-42000000D03*
D14*
X153750000Y-39800000D03*
D13*
X167860000Y-38610000D03*
D15*
X164850000Y-31300000D03*
X158140000Y-31300000D03*
D11*
X188750000Y-60000000D03*
D10*
X176750000Y-57800000D03*
D12*
X188100000Y-60000000D03*
D13*
X187910000Y-56610000D03*
D14*
X177500000Y-57800000D03*
D13*
X191610000Y-56610000D03*
D15*
X188600000Y-49300000D03*
X181890000Y-49300000D03*
D11*
X250500000Y-24000000D03*
D12*
X249850000Y-24000000D03*
D13*
X249660000Y-20610000D03*
D10*
X238500000Y-21800000D03*
D14*
X239250000Y-21800000D03*
D13*
X253360000Y-20610000D03*
D15*
X250350000Y-13300000D03*
X243640000Y-13300000D03*
D10*
X271750000Y-75800000D03*
D12*
X283100000Y-78000000D03*
D11*
X283750000Y-78000000D03*
D13*
X282910000Y-74610000D03*
D14*
X272500000Y-75800000D03*
D13*
X286610000Y-74610000D03*
D15*
X283600000Y-67300000D03*
X276890000Y-67300000D03*
D10*
X210000000Y-93800000D03*
D12*
X221350000Y-96000000D03*
D13*
X221160000Y-92610000D03*
D11*
X222000000Y-96000000D03*
D14*
X210750000Y-93800000D03*
D13*
X224860000Y-92610000D03*
D15*
X221850000Y-85300000D03*
X215140000Y-85300000D03*
D13*
X240160000Y-74610000D03*
D11*
X241000000Y-78000000D03*
D12*
X240350000Y-78000000D03*
D10*
X229000000Y-75800000D03*
D14*
X229750000Y-75800000D03*
D13*
X243860000Y-74610000D03*
D15*
X240850000Y-67300000D03*
X234140000Y-67300000D03*
D13*
X-6840000Y-92610000D03*
D10*
X-18000000Y-93800000D03*
D12*
X-6650000Y-96000000D03*
D11*
X-6000000Y-96000000D03*
D14*
X-17250000Y-93800000D03*
D13*
X-3140000Y-92610000D03*
D15*
X-6150000Y-85300000D03*
X-12860000Y-85300000D03*
D13*
X282910000Y-92610000D03*
D11*
X283750000Y-96000000D03*
D12*
X283100000Y-96000000D03*
D10*
X271750000Y-93800000D03*
D14*
X272500000Y-93800000D03*
D13*
X286610000Y-92610000D03*
D15*
X283600000Y-85300000D03*
X276890000Y-85300000D03*
D12*
X74100000Y-60000000D03*
D11*
X74750000Y-60000000D03*
D10*
X62750000Y-57800000D03*
D13*
X73910000Y-56610000D03*
D14*
X63500000Y-57800000D03*
D13*
X77610000Y-56610000D03*
D15*
X74600000Y-49300000D03*
X67890000Y-49300000D03*
D12*
X173850000Y-24000000D03*
D10*
X162500000Y-21800000D03*
D11*
X174500000Y-24000000D03*
D13*
X173660000Y-20610000D03*
D14*
X163250000Y-21800000D03*
D13*
X177360000Y-20610000D03*
D15*
X174350000Y-13300000D03*
X167640000Y-13300000D03*
D12*
X107350000Y-42000000D03*
D11*
X108000000Y-42000000D03*
D13*
X107160000Y-38610000D03*
D10*
X96000000Y-39800000D03*
D14*
X96750000Y-39800000D03*
D13*
X110860000Y-38610000D03*
D15*
X107850000Y-31300000D03*
X101140000Y-31300000D03*
D13*
X240160000Y-38610000D03*
D11*
X241000000Y-42000000D03*
D10*
X229000000Y-39800000D03*
D12*
X240350000Y-42000000D03*
D14*
X229750000Y-39800000D03*
D13*
X243860000Y-38610000D03*
D15*
X240850000Y-31300000D03*
X234140000Y-31300000D03*
D13*
X135660000Y-20610000D03*
D11*
X136500000Y-24000000D03*
D10*
X124500000Y-21800000D03*
D12*
X135850000Y-24000000D03*
D14*
X125250000Y-21800000D03*
D13*
X139360000Y-20610000D03*
D15*
X136350000Y-13300000D03*
X129640000Y-13300000D03*
D10*
X53250000Y-75800000D03*
D11*
X65250000Y-78000000D03*
D12*
X64600000Y-78000000D03*
D13*
X64410000Y-74610000D03*
D14*
X54000000Y-75800000D03*
D13*
X68110000Y-74610000D03*
D15*
X65100000Y-67300000D03*
X58390000Y-67300000D03*
D12*
X178600000Y-78000000D03*
D13*
X178410000Y-74610000D03*
D10*
X167250000Y-75800000D03*
D11*
X179250000Y-78000000D03*
D14*
X168000000Y-75800000D03*
D13*
X182110000Y-74610000D03*
D15*
X179100000Y-67300000D03*
X172390000Y-67300000D03*
D12*
X278350000Y-42000000D03*
D11*
X279000000Y-42000000D03*
D10*
X267000000Y-39800000D03*
D13*
X278160000Y-38610000D03*
D14*
X267750000Y-39800000D03*
D13*
X281860000Y-38610000D03*
D15*
X278850000Y-31300000D03*
X272140000Y-31300000D03*
D13*
X111910000Y-56610000D03*
D11*
X112750000Y-60000000D03*
D12*
X112100000Y-60000000D03*
D10*
X100750000Y-57800000D03*
D14*
X101500000Y-57800000D03*
D13*
X115610000Y-56610000D03*
D15*
X112600000Y-49300000D03*
X105890000Y-49300000D03*
D10*
X252750000Y-93800000D03*
D12*
X264100000Y-96000000D03*
D13*
X263910000Y-92610000D03*
D11*
X264750000Y-96000000D03*
D14*
X253500000Y-93800000D03*
D13*
X267610000Y-92610000D03*
D15*
X264600000Y-85300000D03*
X257890000Y-85300000D03*
D12*
X159600000Y-78000000D03*
D13*
X159410000Y-74610000D03*
D11*
X160250000Y-78000000D03*
D10*
X148250000Y-75800000D03*
D14*
X149000000Y-75800000D03*
D13*
X163110000Y-74610000D03*
D15*
X160100000Y-67300000D03*
X153390000Y-67300000D03*
D10*
X29500000Y-21800000D03*
D11*
X41500000Y-24000000D03*
D13*
X40660000Y-20610000D03*
D12*
X40850000Y-24000000D03*
D14*
X30250000Y-21800000D03*
D13*
X44360000Y-20610000D03*
D15*
X41350000Y-13300000D03*
X34640000Y-13300000D03*
M02*
