G04 #@! TF.GenerationSoftware,KiCad,Pcbnew,(6.0.2-0)*
G04 #@! TF.CreationDate,2022-07-19T14:21:49+02:00*
G04 #@! TF.ProjectId,choc-keyboard,63686f63-2d6b-4657-9962-6f6172642e6b,rev?*
G04 #@! TF.SameCoordinates,Original*
G04 #@! TF.FileFunction,Soldermask,Top*
G04 #@! TF.FilePolarity,Negative*
%FSLAX46Y46*%
G04 Gerber Fmt 4.6, Leading zero omitted, Abs format (unit mm)*
G04 Created by KiCad (PCBNEW (6.0.2-0)) date 2022-07-19 14:21:49*
%MOMM*%
%LPD*%
G01*
G04 APERTURE LIST*
G04 Aperture macros list*
%AMRoundRect*
0 Rectangle with rounded corners*
0 $1 Rounding radius*
0 $2 $3 $4 $5 $6 $7 $8 $9 X,Y pos of 4 corners*
0 Add a 4 corners polygon primitive as box body*
4,1,4,$2,$3,$4,$5,$6,$7,$8,$9,$2,$3,0*
0 Add four circle primitives for the rounded corners*
1,1,$1+$1,$2,$3*
1,1,$1+$1,$4,$5*
1,1,$1+$1,$6,$7*
1,1,$1+$1,$8,$9*
0 Add four rect primitives between the rounded corners*
20,1,$1+$1,$2,$3,$4,$5,0*
20,1,$1+$1,$4,$5,$6,$7,0*
20,1,$1+$1,$6,$7,$8,$9,0*
20,1,$1+$1,$8,$9,$2,$3,0*%
G04 Aperture macros list end*
%ADD10C,2.400000*%
%ADD11C,2.000000*%
%ADD12C,3.600000*%
%ADD13C,2.200000*%
%ADD14C,2.082800*%
%ADD15RoundRect,0.101600X0.500000X0.500000X-0.500000X0.500000X-0.500000X-0.500000X0.500000X-0.500000X0*%
%ADD16C,1.203200*%
%ADD17C,1.778000*%
G04 APERTURE END LIST*
D10*
X61750000Y-54000000D03*
X0Y-89100000D03*
X140600000Y-83700000D03*
X230375000Y-94500000D03*
X235125000Y-51300000D03*
X218500000Y-15299999D03*
X104500000Y-15299999D03*
X28500000Y-15299999D03*
D11*
X89500000Y-18000000D03*
X100500000Y-18000000D03*
D12*
X95000000Y-18000000D03*
D11*
X-5500000Y-18000000D03*
X5500000Y-18000000D03*
D12*
X0Y-18000000D03*
X66500000Y-36000000D03*
D11*
X72000000Y-36000000D03*
X61000000Y-36000000D03*
D12*
X80750000Y-72000000D03*
D11*
X75250000Y-72000000D03*
X86250000Y-72000000D03*
X94076495Y-104312592D03*
D12*
X95500000Y-99000000D03*
D11*
X96923505Y-93687408D03*
X124250000Y-90000000D03*
D12*
X118750000Y-90000000D03*
D11*
X113250000Y-90000000D03*
D12*
X71250000Y-90000000D03*
D11*
X76750000Y-90000000D03*
X65750000Y-90000000D03*
X148000000Y-36000000D03*
D12*
X142500000Y-36000000D03*
D11*
X137000000Y-36000000D03*
X260500000Y-18000000D03*
D12*
X266000000Y-18000000D03*
D11*
X271500000Y-18000000D03*
X124250000Y-72000000D03*
D12*
X118750000Y-72000000D03*
D11*
X113250000Y-72000000D03*
D13*
X147250000Y-83700000D03*
D11*
X18250000Y-72000000D03*
X29250000Y-72000000D03*
D12*
X23750000Y-72000000D03*
D11*
X222500000Y-18000000D03*
D12*
X228000000Y-18000000D03*
D11*
X233500000Y-18000000D03*
X213000000Y-36000000D03*
D12*
X218500000Y-36000000D03*
D11*
X224000000Y-36000000D03*
X186000000Y-36000000D03*
D12*
X180500000Y-36000000D03*
D11*
X175000000Y-36000000D03*
D12*
X199500000Y-36000000D03*
D11*
X205000000Y-36000000D03*
X194000000Y-36000000D03*
X247750000Y-90000000D03*
D12*
X242250000Y-90000000D03*
D11*
X236750000Y-90000000D03*
D12*
X90250000Y-54000000D03*
D11*
X84750000Y-54000000D03*
X95750000Y-54000000D03*
X-5500000Y-72000000D03*
D12*
X0Y-72000000D03*
D11*
X5500000Y-72000000D03*
X34000000Y-36000000D03*
X23000000Y-36000000D03*
D12*
X28500000Y-36000000D03*
D11*
X15000000Y-90000000D03*
D12*
X9500000Y-90000000D03*
D11*
X4000000Y-90000000D03*
X8750000Y-54000000D03*
X19750000Y-54000000D03*
D12*
X14250000Y-54000000D03*
X256500000Y-36000000D03*
D11*
X251000000Y-36000000D03*
X262000000Y-36000000D03*
D12*
X47500000Y-90000000D03*
D11*
X53000000Y-90000000D03*
X42000000Y-90000000D03*
D13*
X225625000Y-65700000D03*
D11*
X57750000Y-54000000D03*
X46750000Y-54000000D03*
D12*
X52250000Y-54000000D03*
X47500000Y-36000000D03*
D11*
X53000000Y-36000000D03*
X42000000Y-36000000D03*
X252500000Y-54000000D03*
D12*
X247000000Y-54000000D03*
D11*
X241500000Y-54000000D03*
X108500000Y-18000000D03*
X119500000Y-18000000D03*
D12*
X114000000Y-18000000D03*
D13*
X237500000Y-15299999D03*
D12*
X-4750000Y-54000000D03*
D11*
X-10250000Y-54000000D03*
X750000Y-54000000D03*
D13*
X42750000Y-51300000D03*
D12*
X161500000Y-90000000D03*
D11*
X167000000Y-90000000D03*
X156000000Y-90000000D03*
D13*
X82750000Y-90899999D03*
D12*
X213750000Y-72000000D03*
D11*
X208250000Y-72000000D03*
X219250000Y-72000000D03*
X265250000Y-54000000D03*
X276250000Y-54000000D03*
D12*
X270750000Y-54000000D03*
D11*
X200250000Y-72000000D03*
X189250000Y-72000000D03*
D12*
X194750000Y-72000000D03*
D13*
X194750000Y-51300000D03*
D11*
X143250000Y-72000000D03*
X132250000Y-72000000D03*
D12*
X137750000Y-72000000D03*
D13*
X38000000Y-87300000D03*
D14*
X13700000Y-35400000D03*
X-20560000Y-45747000D03*
X-18020000Y-45493000D03*
X-15480000Y-45747000D03*
X-12940000Y-45493000D03*
X-10400000Y-45747000D03*
X-7860000Y-45493000D03*
X-5320000Y-45747000D03*
X-2780000Y-45493000D03*
X-240000Y-45747000D03*
X2300000Y-45493000D03*
X4840000Y-45747000D03*
X7380000Y-45493000D03*
X9920000Y-45747000D03*
X12460000Y-45493000D03*
X15000000Y-45747000D03*
X17540000Y-45493000D03*
X20080000Y-45747000D03*
X22620000Y-45493000D03*
X25160000Y-45747000D03*
X23100000Y-33300000D03*
X22620000Y-30507000D03*
X20080000Y-30253000D03*
X17540000Y-30507000D03*
X15000000Y-30253000D03*
X12460000Y-30507000D03*
X9920000Y-30253000D03*
X7380000Y-30507000D03*
X4840000Y-30253000D03*
X2300000Y-30507000D03*
X-240000Y-30253000D03*
X-2780000Y-30507000D03*
X-5320000Y-30253000D03*
X-7860000Y-30507000D03*
X-10400000Y-30253000D03*
X-12940000Y-30507000D03*
X-15480000Y-30253000D03*
X-18020000Y-30507000D03*
X-20560000Y-30253000D03*
X16500000Y-35400000D03*
D15*
X12350000Y-33630000D03*
D16*
X15100000Y-33700000D03*
X12370000Y-37040000D03*
X15100000Y-37100000D03*
D12*
X142000000Y-99000000D03*
D11*
X143423505Y-104312592D03*
X140576495Y-93687408D03*
D13*
X230375000Y-87300000D03*
D12*
X261250000Y-72000000D03*
D11*
X266750000Y-72000000D03*
X255750000Y-72000000D03*
X186000000Y-90000000D03*
X175000000Y-90000000D03*
D12*
X180500000Y-90000000D03*
X204250000Y-54000000D03*
D11*
X198750000Y-54000000D03*
X209750000Y-54000000D03*
D12*
X223250000Y-54000000D03*
D11*
X217750000Y-54000000D03*
X228750000Y-54000000D03*
X62500000Y-18000000D03*
X51500000Y-18000000D03*
D12*
X57000000Y-18000000D03*
D11*
X129000000Y-36000000D03*
X118000000Y-36000000D03*
D12*
X123500000Y-36000000D03*
X33250000Y-54000000D03*
D11*
X27750000Y-54000000D03*
X38750000Y-54000000D03*
D12*
X99750000Y-72000000D03*
D11*
X105250000Y-72000000D03*
X94250000Y-72000000D03*
X133750000Y-54000000D03*
D12*
X128250000Y-54000000D03*
D11*
X122750000Y-54000000D03*
D13*
X66500000Y-15299999D03*
D12*
X19000000Y-18000000D03*
D11*
X13500000Y-18000000D03*
X24500000Y-18000000D03*
X171750000Y-54000000D03*
D12*
X166250000Y-54000000D03*
D11*
X160750000Y-54000000D03*
X141750000Y-54000000D03*
D12*
X147250000Y-54000000D03*
D11*
X152750000Y-54000000D03*
D12*
X28500000Y-90000000D03*
D11*
X23000000Y-90000000D03*
X34000000Y-90000000D03*
D13*
X9500000Y-15299999D03*
D12*
X199500000Y-90000000D03*
D11*
X205000000Y-90000000D03*
X194000000Y-90000000D03*
X70500000Y-18000000D03*
X81500000Y-18000000D03*
D12*
X76000000Y-18000000D03*
X209000000Y-18000000D03*
D11*
X203500000Y-18000000D03*
X214500000Y-18000000D03*
D13*
X180500000Y-15299999D03*
D11*
X-750000Y-36000000D03*
X10250000Y-36000000D03*
D12*
X4750000Y-36000000D03*
X42750000Y-72000000D03*
D11*
X48250000Y-72000000D03*
X37250000Y-72000000D03*
D12*
X85500000Y-36000000D03*
D11*
X80000000Y-36000000D03*
X91000000Y-36000000D03*
D13*
X258875000Y-51300000D03*
D11*
X157500000Y-18000000D03*
D12*
X152000000Y-18000000D03*
D11*
X146500000Y-18000000D03*
X184500000Y-18000000D03*
D12*
X190000000Y-18000000D03*
D11*
X195500000Y-18000000D03*
D13*
X123500000Y-15299999D03*
X118750000Y-51300000D03*
D11*
X167000000Y-36000000D03*
D12*
X161500000Y-36000000D03*
D11*
X156000000Y-36000000D03*
D13*
X9875000Y-79200000D03*
D12*
X185250000Y-54000000D03*
D11*
X190750000Y-54000000D03*
X179750000Y-54000000D03*
X252500000Y-18000000D03*
X241500000Y-18000000D03*
D12*
X247000000Y-18000000D03*
D11*
X274750000Y-72000000D03*
X285750000Y-72000000D03*
D12*
X280250000Y-72000000D03*
D11*
X213000000Y-90000000D03*
X224000000Y-90000000D03*
D12*
X218500000Y-90000000D03*
X237500000Y-72000000D03*
D11*
X243000000Y-72000000D03*
X232000000Y-72000000D03*
D12*
X-9500000Y-90000000D03*
D11*
X-4000000Y-90000000D03*
X-15000000Y-90000000D03*
X274750000Y-90000000D03*
D12*
X280250000Y-90000000D03*
D11*
X285750000Y-90000000D03*
D12*
X71250000Y-54000000D03*
D11*
X76750000Y-54000000D03*
X65750000Y-54000000D03*
D12*
X171000000Y-18000000D03*
D11*
X165500000Y-18000000D03*
X176500000Y-18000000D03*
X99000000Y-36000000D03*
X110000000Y-36000000D03*
D12*
X104500000Y-36000000D03*
X237500000Y-36000000D03*
D11*
X232000000Y-36000000D03*
X243000000Y-36000000D03*
X138500000Y-18000000D03*
X127500000Y-18000000D03*
D12*
X133000000Y-18000000D03*
D11*
X67250000Y-72000000D03*
X56250000Y-72000000D03*
D12*
X61750000Y-72000000D03*
D11*
X170250000Y-72000000D03*
X181250000Y-72000000D03*
D12*
X175750000Y-72000000D03*
D13*
X270750000Y-87300000D03*
X156750000Y-51300000D03*
D11*
X281000000Y-36000000D03*
D12*
X275500000Y-36000000D03*
D11*
X270000000Y-36000000D03*
D12*
X109250000Y-54000000D03*
D11*
X103750000Y-54000000D03*
X114750000Y-54000000D03*
X255750000Y-90000000D03*
D12*
X261250000Y-90000000D03*
D11*
X266750000Y-90000000D03*
X151250000Y-72000000D03*
X162250000Y-72000000D03*
D12*
X156750000Y-72000000D03*
D17*
X101810000Y-107270000D03*
X104350000Y-107270000D03*
X106890000Y-107270000D03*
X109430000Y-107270000D03*
X111970000Y-107270000D03*
X114510000Y-107270000D03*
X117050000Y-107270000D03*
X119590000Y-107270000D03*
X122130000Y-107270000D03*
X124670000Y-107270000D03*
X127210000Y-107270000D03*
X129750000Y-107270000D03*
X132290000Y-107270000D03*
X101810000Y-81870000D03*
X104350000Y-81870000D03*
X106890000Y-81870000D03*
X109430000Y-81870000D03*
X111970000Y-81870000D03*
X114510000Y-81870000D03*
X117050000Y-81870000D03*
X119590000Y-81870000D03*
X122130000Y-81870000D03*
X124670000Y-81870000D03*
X127210000Y-81870000D03*
X129750000Y-81870000D03*
X132290000Y-81870000D03*
D12*
X38000000Y-18000000D03*
D11*
X43500000Y-18000000D03*
X32500000Y-18000000D03*
M02*
