M48
; DRILL file {KiCad (6.0.2-0)} date Tuesday, July 19, 2022 at 02:21:52 PM
; FORMAT={-:-/ absolute / metric / decimal}
; #@! TF.CreationDate,2022-07-19T14:21:52+02:00
; #@! TF.GenerationSoftware,Kicad,Pcbnew,(6.0.2-0)
; #@! TF.FileFunction,Plated,1,2,PTH
FMAT,2
METRIC
; #@! TA.AperFunction,Plated,PTH,ViaDrill
T1C0.400
; #@! TA.AperFunction,Plated,PTH,ComponentDrill
T2C1.000
; #@! TA.AperFunction,Plated,PTH,ComponentDrill
T3C1.016
; #@! TA.AperFunction,Plated,PTH,ComponentDrill
T4C1.200
; #@! TA.AperFunction,Plated,PTH,ComponentDrill
T5C3.050
%
G90
G05
T1
X-12.08Y-59.649
X-10.71Y-48.64
X-8.64Y-53.11
X-8.38Y-55.05
X-6.77Y-62.5
X-6.762Y-52.474
X-5.92Y-63.43
X-2.52Y-87.31
X-1.84Y-69.65
X-0.38Y-51.67
X1.25Y-58.95
X2.17Y-62.25
X2.7Y-28.974
X2.8Y-48.9
X3.59Y-16.15
X4.43Y-60.66
X4.577Y-56.172
X7.41Y-25.24
X7.47Y-26.749
X7.76Y-36.52
X7.94Y-60.19
X8.2Y-51.4
X8.42Y-27.275
X8.51Y-20.57
X8.525Y-62.08
X8.525Y-63.08
X8.712Y-69.052
X9.29Y-67.45
X9.3Y-49.2
X10.3Y-31.93
X10.35Y-18.79
X10.48Y-74.45
X10.54Y-69.19
X11.57Y-47.03
X11.69Y-28.25
X12.01Y-56.24
X15.11Y-26.48
X15.92Y-27.354
X16.46Y-47.22
X17.32Y-81.55
X17.47Y-52.69
X17.92Y-34.14
X18.005Y-32.896
X18.047Y-54.797
X19.54Y-31.71
X20.12Y-32.86
X20.6Y-82.88
X21.38Y-53.72
X22.301Y-50.555
X22.65Y-56.29
X22.65Y-60.93
X23.01Y-27.43
X23.81Y-51.28
X23.82Y-26.63
X24.12Y-49.76
X25.72Y-33.54
X25.96Y-65.31
X26.29Y-29.13
X26.41Y-17.96
X27.18Y-70.14
X27.2Y-64.369
X27.525Y-62.92
X27.99Y-49.58
X31.13Y-28.3
X32.02Y-25.4
X32.02Y-26.53
X32.13Y-27.53
X33.75Y-25.65
X34.11Y-29.93
X34.5Y-33.05
X37.94Y-83.004
X38.45Y-31.505
X38.94Y-47.69
X38.97Y-50.07
X39.15Y-65.21
X41.13Y-43.26
X41.58Y-30.95
X43.224Y-42.29
X44.66Y-69.83
X44.916Y-39.791
X44.98Y-43.0
X46.036Y-39.335
X46.23Y-18.13
X46.29Y-71.41
X46.325Y-46.207
X47.04Y-50.4
X47.61Y-69.93
X48.748Y-39.446
X49.08Y-65.99
X49.14Y-33.93
X49.77Y-29.23
X49.9Y-58.81
X49.975Y-56.4
X50.51Y-36.12
X55.99Y-36.04
X57.03Y-28.35
X57.59Y-48.49
X57.7Y-83.004
X58.97Y-70.88
X58.98Y-52.35
X59.61Y-27.53
X59.98Y-45.023
X61.38Y-49.31
X61.56Y-26.59
X64.07Y-69.65
X64.16Y-85.86
X64.8Y-18.39
X65.5Y-61.3
X66.02Y-25.67
X67.21Y-61.3
X67.34Y-66.35
X68.46Y-33.73
X68.93Y-27.58
X69.46Y-36.35
X69.81Y-26.64
X69.91Y-77.92
X69.97Y-28.4
X70.08Y-57.54
X71.888Y-32.212
X72.16Y-33.68
X73.05Y-16.01
X73.45Y-29.28
X76.75Y-48.87
X78.408Y-47.49
X83.94Y-65.1
X85.82Y-69.0
X85.84Y-18.73
X87.07Y-96.32
X87.37Y-54.47
X87.66Y-33.64
X88.21Y-36.5
X88.25Y-29.2
X89.17Y-83.004
X89.28Y-103.13
X92.12Y-33.52
X93.848Y-83.004
X94.175Y-54.485
X95.61Y-47.31
X95.87Y-72.79
X96.33Y-69.97
X96.392Y-48.852
X100.92Y-46.26
X102.39Y-33.46
X103.13Y-18.28
X103.54Y-48.76
X104.27Y-86.6
X105.21Y-69.13
X105.91Y-60.77
X106.18Y-65.64
X106.57Y-54.6
X106.82Y-72.63
X107.05Y-103.71
X107.173Y-56.867
X107.328Y-100.206
X107.54Y-35.72
X107.95Y-86.76
X108.52Y-72.63
X109.08Y-103.65
X109.75Y-32.24
X110.95Y-69.86
X111.03Y-33.41
X111.62Y-30.88
X112.19Y-54.65
X114.587Y-49.047
X115.08Y-99.98
X117.45Y-99.75
X119.02Y-46.43
X119.749Y-28.226
X121.28Y-65.07
X121.49Y-33.66
X122.36Y-18.61
X124.17Y-85.2
X125.98Y-29.21
X126.29Y-36.59
X128.95Y-24.75
X130.03Y-33.66
X132.61Y-84.65
X133.774Y-49.43
X134.901Y-80.856
X135.53Y-51.68
X138.41Y-50.95
X139.35Y-53.64
X140.03Y-65.27
X140.91Y-33.71
X141.27Y-18.41
X144.13Y-17.82
X144.23Y-28.86
X145.74Y-36.31
X147.28Y-69.43
X149.04Y-33.61
X152.93Y-48.83
X154.82Y-63.644
X158.73Y-14.4
X158.91Y-65.27
X159.29Y-70.48
X163.06Y-28.76
X163.75Y-33.45
X164.19Y-36.961
X166.0Y-33.62
X168.46Y-83.64
X171.15Y-78.59
X172.07Y-48.99
X173.05Y-68.766
X173.36Y-65.45
X173.45Y-74.91
X176.25Y-63.644
X178.4Y-65.45
X179.46Y-18.47
X182.77Y-29.27
X183.29Y-46.96
X183.91Y-33.97
X189.14Y-64.53
X192.42Y-42.89
X194.03Y-54.78
X194.3Y-58.04
X194.61Y-60.76
X194.873Y-48.832
X196.71Y-65.11
X198.88Y-18.41
X201.23Y-29.01
X201.9Y-36.69
X208.34Y-36.88
X210.3Y-44.9
X211.47Y-50.61
X212.43Y-53.65
X213.37Y-54.54
X214.14Y-49.56
X214.43Y-64.53
X216.47Y-81.53
X217.1Y-18.1
X221.13Y-28.45
X221.55Y-36.4
X222.35Y-82.93
X223.86Y-72.49
X233.17Y-49.16
X236.57Y-18.73
X238.81Y-63.14
X239.32Y-29.07
X239.83Y-64.95
X240.27Y-35.89
X244.63Y-69.87
X246.01Y-75.97
X250.56Y-46.71
X253.32Y-49.45
X254.21Y-28.21
X254.67Y-17.86
X256.24Y-17.82
X258.92Y-69.59
X259.09Y-27.61
X259.19Y-82.72
X259.51Y-36.42
X263.37Y-64.55
X263.72Y-80.84
X263.92Y-70.01
X269.95Y-45.9
X273.1Y-40.0
X273.16Y-37.18
X273.84Y-53.71
X274.15Y-82.67
X278.39Y-36.517
T2
X101.81Y-81.87
X101.81Y-107.27
X104.35Y-81.87
X104.35Y-107.27
X106.89Y-81.87
X106.89Y-107.27
X109.43Y-81.87
X109.43Y-107.27
X111.97Y-81.87
X111.97Y-107.27
X114.51Y-81.87
X114.51Y-107.27
X117.05Y-81.87
X117.05Y-107.27
X119.59Y-81.87
X119.59Y-107.27
X122.13Y-81.87
X122.13Y-107.27
X124.67Y-81.87
X124.67Y-107.27
X127.21Y-81.87
X127.21Y-107.27
X129.75Y-81.87
X129.75Y-107.27
X132.29Y-81.87
X132.29Y-107.27
T3
X-20.56Y-30.253
X-20.56Y-45.747
X-18.02Y-30.507
X-18.02Y-45.493
X-15.48Y-30.253
X-15.48Y-45.747
X-12.94Y-30.507
X-12.94Y-45.493
X-10.4Y-30.253
X-10.4Y-45.747
X-7.86Y-30.507
X-7.86Y-45.493
X-5.32Y-30.253
X-5.32Y-45.747
X-2.78Y-30.507
X-2.78Y-45.493
X-0.24Y-30.253
X-0.24Y-45.747
X2.3Y-30.507
X2.3Y-45.493
X4.84Y-30.253
X4.84Y-45.747
X7.38Y-30.507
X7.38Y-45.493
X9.92Y-30.253
X9.92Y-45.747
X12.46Y-30.507
X12.46Y-45.493
X13.7Y-35.4
X15.0Y-30.253
X15.0Y-45.747
X16.5Y-35.4
X17.54Y-30.507
X17.54Y-45.493
X20.08Y-30.253
X20.08Y-45.747
X22.62Y-30.507
X22.62Y-45.493
X23.1Y-33.3
X25.16Y-45.747
T4
X0.0Y-89.1
X28.5Y-15.3
X61.75Y-54.0
X104.5Y-15.3
X140.6Y-83.7
X218.5Y-15.3
X230.375Y-94.5
X235.125Y-51.3
T5
X-14.5Y-93.8
X-9.75Y-57.8
X-9.5Y-95.9
X-5.0Y-21.8
X-5.0Y-75.8
X-4.75Y-59.9
X-0.25Y-39.8
X0.0Y-23.9
X0.0Y-77.9
X4.5Y-93.8
X4.75Y-41.9
X9.25Y-57.8
X9.5Y-95.9
X14.0Y-21.8
X14.25Y-59.9
X18.75Y-75.8
X19.0Y-23.9
X23.5Y-39.8
X23.5Y-93.8
X23.75Y-77.9
X28.25Y-57.8
X28.5Y-41.9
X28.5Y-95.9
X33.0Y-21.8
X33.25Y-59.9
X37.75Y-75.8
X38.0Y-23.9
X42.5Y-39.8
X42.5Y-93.8
X42.75Y-77.9
X47.25Y-57.8
X47.5Y-41.9
X47.5Y-95.9
X52.0Y-21.8
X52.25Y-59.9
X56.75Y-75.8
X57.0Y-23.9
X61.5Y-39.8
X61.75Y-77.9
X66.25Y-57.8
X66.25Y-93.8
X66.5Y-41.9
X71.0Y-21.8
X71.25Y-59.9
X71.25Y-95.9
X75.75Y-75.8
X76.0Y-23.9
X80.5Y-39.8
X80.75Y-77.9
X85.25Y-57.8
X85.5Y-41.9
X89.801Y-97.473
X90.0Y-21.8
X90.25Y-59.9
X93.124Y-93.187
X94.75Y-75.8
X95.0Y-23.9
X99.5Y-39.8
X99.75Y-77.9
X104.25Y-57.8
X104.5Y-41.9
X109.0Y-21.8
X109.25Y-59.9
X113.75Y-75.8
X113.75Y-93.8
X114.0Y-23.9
X118.5Y-39.8
X118.75Y-77.9
X118.75Y-95.9
X123.25Y-57.8
X123.5Y-41.9
X128.0Y-21.8
X128.25Y-59.9
X132.75Y-75.8
X133.0Y-23.9
X137.5Y-39.8
X137.75Y-77.9
X142.25Y-57.8
X142.5Y-41.9
X146.965Y-102.846
X147.0Y-21.8
X147.25Y-59.9
X147.699Y-97.473
X151.75Y-75.8
X152.0Y-23.9
X156.5Y-39.8
X156.5Y-93.8
X156.75Y-77.9
X161.25Y-57.8
X161.5Y-41.9
X161.5Y-95.9
X166.0Y-21.8
X166.25Y-59.9
X170.75Y-75.8
X171.0Y-23.9
X175.5Y-39.8
X175.5Y-93.8
X175.75Y-77.9
X180.25Y-57.8
X180.5Y-41.9
X180.5Y-95.9
X185.0Y-21.8
X185.25Y-59.9
X189.75Y-75.8
X190.0Y-23.9
X194.5Y-39.8
X194.5Y-93.8
X194.75Y-77.9
X199.25Y-57.8
X199.5Y-41.9
X199.5Y-95.9
X204.0Y-21.8
X204.25Y-59.9
X208.75Y-75.8
X209.0Y-23.9
X213.5Y-39.8
X213.5Y-93.8
X213.75Y-77.9
X218.25Y-57.8
X218.5Y-41.9
X218.5Y-95.9
X223.0Y-21.8
X223.25Y-59.9
X228.0Y-23.9
X232.5Y-39.8
X232.5Y-75.8
X237.25Y-93.8
X237.5Y-41.9
X237.5Y-77.9
X242.0Y-21.8
X242.0Y-57.8
X242.25Y-95.9
X247.0Y-23.9
X247.0Y-59.9
X251.5Y-39.8
X256.25Y-75.8
X256.25Y-93.8
X256.5Y-41.9
X261.0Y-21.8
X261.25Y-77.9
X261.25Y-95.9
X265.75Y-57.8
X266.0Y-23.9
X270.5Y-39.8
X270.75Y-59.9
X275.25Y-75.8
X275.25Y-93.8
X275.5Y-41.9
X280.25Y-77.9
X280.25Y-95.9
T0
M30
