M48
; DRILL file {KiCad (6.0.2-0)} date Tuesday, July 19, 2022 at 02:21:52 PM
; FORMAT={-:-/ absolute / metric / decimal}
; #@! TF.CreationDate,2022-07-19T14:21:52+02:00
; #@! TF.GenerationSoftware,Kicad,Pcbnew,(6.0.2-0)
; #@! TF.FileFunction,NonPlated,1,2,NPTH
FMAT,2
METRIC
; #@! TA.AperFunction,NonPlated,NPTH,ComponentDrill
T1C1.900
; #@! TA.AperFunction,NonPlated,NPTH,ComponentDrill
T2C2.200
; #@! TA.AperFunction,NonPlated,NPTH,ComponentDrill
T3C3.400
%
G90
G05
T1
X-15.0Y-90.0
X-10.25Y-54.0
X-5.5Y-18.0
X-5.5Y-72.0
X-4.0Y-90.0
X-0.75Y-36.0
X0.75Y-54.0
X4.0Y-90.0
X5.5Y-18.0
X5.5Y-72.0
X8.75Y-54.0
X10.25Y-36.0
X13.5Y-18.0
X15.0Y-90.0
X18.25Y-72.0
X19.75Y-54.0
X23.0Y-36.0
X23.0Y-90.0
X24.5Y-18.0
X27.75Y-54.0
X29.25Y-72.0
X32.5Y-18.0
X34.0Y-36.0
X34.0Y-90.0
X37.25Y-72.0
X38.75Y-54.0
X42.0Y-36.0
X42.0Y-90.0
X43.5Y-18.0
X46.75Y-54.0
X48.25Y-72.0
X51.5Y-18.0
X53.0Y-36.0
X53.0Y-90.0
X56.25Y-72.0
X57.75Y-54.0
X61.0Y-36.0
X62.5Y-18.0
X65.75Y-54.0
X65.75Y-90.0
X67.25Y-72.0
X70.5Y-18.0
X72.0Y-36.0
X75.25Y-72.0
X76.75Y-54.0
X76.75Y-90.0
X80.0Y-36.0
X81.5Y-18.0
X84.75Y-54.0
X86.25Y-72.0
X89.5Y-18.0
X91.0Y-36.0
X94.076Y-104.313
X94.25Y-72.0
X95.75Y-54.0
X96.924Y-93.687
X99.0Y-36.0
X100.5Y-18.0
X103.75Y-54.0
X105.25Y-72.0
X108.5Y-18.0
X110.0Y-36.0
X113.25Y-72.0
X113.25Y-90.0
X114.75Y-54.0
X118.0Y-36.0
X119.5Y-18.0
X122.75Y-54.0
X124.25Y-72.0
X124.25Y-90.0
X127.5Y-18.0
X129.0Y-36.0
X132.25Y-72.0
X133.75Y-54.0
X137.0Y-36.0
X138.5Y-18.0
X140.576Y-93.687
X141.75Y-54.0
X143.25Y-72.0
X143.424Y-104.313
X146.5Y-18.0
X148.0Y-36.0
X151.25Y-72.0
X152.75Y-54.0
X156.0Y-36.0
X156.0Y-90.0
X157.5Y-18.0
X160.75Y-54.0
X162.25Y-72.0
X165.5Y-18.0
X167.0Y-36.0
X167.0Y-90.0
X170.25Y-72.0
X171.75Y-54.0
X175.0Y-36.0
X175.0Y-90.0
X176.5Y-18.0
X179.75Y-54.0
X181.25Y-72.0
X184.5Y-18.0
X186.0Y-36.0
X186.0Y-90.0
X189.25Y-72.0
X190.75Y-54.0
X194.0Y-36.0
X194.0Y-90.0
X195.5Y-18.0
X198.75Y-54.0
X200.25Y-72.0
X203.5Y-18.0
X205.0Y-36.0
X205.0Y-90.0
X208.25Y-72.0
X209.75Y-54.0
X213.0Y-36.0
X213.0Y-90.0
X214.5Y-18.0
X217.75Y-54.0
X219.25Y-72.0
X222.5Y-18.0
X224.0Y-36.0
X224.0Y-90.0
X228.75Y-54.0
X232.0Y-36.0
X232.0Y-72.0
X233.5Y-18.0
X236.75Y-90.0
X241.5Y-18.0
X241.5Y-54.0
X243.0Y-36.0
X243.0Y-72.0
X247.75Y-90.0
X251.0Y-36.0
X252.5Y-18.0
X252.5Y-54.0
X255.75Y-72.0
X255.75Y-90.0
X260.5Y-18.0
X262.0Y-36.0
X265.25Y-54.0
X266.75Y-72.0
X266.75Y-90.0
X270.0Y-36.0
X271.5Y-18.0
X274.75Y-72.0
X274.75Y-90.0
X276.25Y-54.0
X281.0Y-36.0
X285.75Y-72.0
X285.75Y-90.0
T2
X9.5Y-15.3
X9.875Y-79.2
X38.0Y-87.3
X42.75Y-51.3
X66.5Y-15.3
X82.75Y-90.9
X118.75Y-51.3
X123.5Y-15.3
X147.25Y-83.7
X156.75Y-51.3
X180.5Y-15.3
X194.75Y-51.3
X225.625Y-65.7
X230.375Y-87.3
X237.5Y-15.3
X258.875Y-51.3
X270.75Y-87.3
T3
X-9.5Y-90.0
X-4.75Y-54.0
X0.0Y-18.0
X0.0Y-72.0
X4.75Y-36.0
X9.5Y-90.0
X14.25Y-54.0
X19.0Y-18.0
X23.75Y-72.0
X28.5Y-36.0
X28.5Y-90.0
X33.25Y-54.0
X38.0Y-18.0
X42.75Y-72.0
X47.5Y-36.0
X47.5Y-90.0
X52.25Y-54.0
X57.0Y-18.0
X61.75Y-72.0
X66.5Y-36.0
X71.25Y-54.0
X71.25Y-90.0
X76.0Y-18.0
X80.75Y-72.0
X85.5Y-36.0
X90.25Y-54.0
X95.0Y-18.0
X95.5Y-99.0
X99.75Y-72.0
X104.5Y-36.0
X109.25Y-54.0
X114.0Y-18.0
X118.75Y-72.0
X118.75Y-90.0
X123.5Y-36.0
X128.25Y-54.0
X133.0Y-18.0
X137.75Y-72.0
X142.0Y-99.0
X142.5Y-36.0
X147.25Y-54.0
X152.0Y-18.0
X156.75Y-72.0
X161.5Y-36.0
X161.5Y-90.0
X166.25Y-54.0
X171.0Y-18.0
X175.75Y-72.0
X180.5Y-36.0
X180.5Y-90.0
X185.25Y-54.0
X190.0Y-18.0
X194.75Y-72.0
X199.5Y-36.0
X199.5Y-90.0
X204.25Y-54.0
X209.0Y-18.0
X213.75Y-72.0
X218.5Y-36.0
X218.5Y-90.0
X223.25Y-54.0
X228.0Y-18.0
X237.5Y-36.0
X237.5Y-72.0
X242.25Y-90.0
X247.0Y-18.0
X247.0Y-54.0
X256.5Y-36.0
X261.25Y-72.0
X261.25Y-90.0
X266.0Y-18.0
X270.75Y-54.0
X275.5Y-36.0
X280.25Y-72.0
X280.25Y-90.0
T0
M30
